<svg width="20" height="20" viewBox="0 0 20 20" fill="none" xmlns="http://www.w3.org/2000/svg">
<path d="M3.53505 7.8284H7.77769M7.77769 7.8284V3.58576M7.77769 7.8284L2.12083 2.17154M14.3545 1C13.5367 1 12.8012 1.4979 12.4975 2.25722L11.4423 4.89309C11.1695 5.57516 11.2934 6.35195 11.7636 6.9163L12.331 7.59668C12.9932 8.39134 12.9392 9.55962 12.2078 10.2911L10.2918 12.2088C9.56034 12.9402 8.39111 12.9929 7.59646 12.3307L6.91603 11.7632C6.35169 11.2929 5.57512 11.1701 4.89305 11.4429L2.2566 12.4971C1.49728 12.8009 0.999512 13.5361 0.999512 14.354L0.999975 17.1052C0.999975 18.1516 1.84807 19 2.89451 19C11.7892 19 19 11.7892 19 2.89453C19 1.8481 18.1517 1 17.1052 1H14.3545Z" stroke="white" stroke-width="1.5" stroke-linecap="round" stroke-linejoin="round"/>
</svg>
