<svg xmlns="http://www.w3.org/2000/svg" version="1.1" xmlns:xlink="http://www.w3.org/1999/xlink" width="61" height="40"><svg xmlns="http://www.w3.org/2000/svg" version="1.1" xmlns:xlink="http://www.w3.org/1999/xlink" width="61" height="40"><svg width="61" height="40" viewBox="0 0 61 40" fill="none" xmlns="http://www.w3.org/2000/svg">
<path d="M57.8403 9.91994C56.3703 8.98994 54.1303 8.50994 51.1303 8.48994L44.3003 8.43994C45.5203 10.0599 46.4803 11.8699 47.1403 13.8299H49.0503C52.3303 13.8699 53.9603 15.1199 53.9403 17.5999L53.9103 21.4399C53.8903 23.8199 52.5203 24.9999 49.8103 24.9799L47.4903 24.9599C46.9803 26.8599 46.1903 28.6299 45.1603 30.2499L52.9203 30.3099C55.4603 30.3299 57.3403 29.8199 58.5703 28.7899C59.8803 27.6799 60.5403 25.8799 60.5603 23.3799L60.6203 15.8799C60.6403 13.0799 59.7203 11.0999 57.8503 9.91994H57.8403Z" fill="#327EB0"></path>
<path d="M6.48035 16.9099C6.48035 15.9099 6.66035 15.2199 6.99035 14.8399C7.32035 14.4599 7.98035 14.2799 8.96035 14.2799H10.6103C11.1603 12.4999 11.9703 10.8299 12.9903 9.29994L8.49035 9.26994C5.85035 9.24994 3.92035 9.61994 2.69035 10.3699C1.10035 11.3199 0.300349 13.0099 0.280349 15.4499C0.280349 15.9699 0.290349 16.4399 0.330349 16.8599L6.48035 16.9099Z" fill="#327EB0"></path>
<path d="M10.9603 26.6299H9.23035C8.13035 26.6099 7.38035 26.4799 6.98035 26.2399C6.44035 25.8999 6.18035 25.2099 6.19035 24.1899C6.19035 23.8099 6.19035 23.5599 6.19035 23.4399L0.0703489 23.4799C0.0303489 24.5699 0.000348853 25.1899 0.000348853 25.3499C-0.0196511 28.0099 0.820349 29.7799 2.51035 30.6799C3.66035 31.2899 5.71035 31.5999 8.65035 31.6299L13.7403 31.6699C12.5703 30.1599 11.6303 28.4599 10.9503 26.6399L10.9603 26.6299Z" fill="#327EB0"></path>
<path d="M37.4904 26.4001C37.4704 24.2101 37.4504 22.0201 37.4304 19.8201C37.4104 17.6301 37.3903 15.4401 37.3703 13.2501C40.0303 13.2801 42.7004 13.3201 45.3604 13.3901C44.3804 10.9501 42.8704 8.78011 40.9804 7.03011C40.7004 7.02011 40.4204 7.00011 40.1404 6.99011C37.0404 6.88011 33.9304 6.87011 30.8304 6.86011C30.8704 11.2001 30.9104 15.5301 30.9604 19.8601C31.0004 24.1901 31.0404 28.5301 31.0904 32.8601C34.5104 32.7901 37.9303 32.7001 41.3503 32.5001C41.3803 32.5001 41.4104 32.5001 41.4304 32.5001C43.2304 30.7101 44.6403 28.5401 45.5303 26.1201C42.8503 26.2401 40.1804 26.3401 37.5004 26.4201L37.4904 26.4001Z" fill="#043E6C"></path>
<path fill-rule="evenodd" clip-rule="evenodd" d="M28.9104 24.2101C28.9004 22.7801 28.5204 21.7201 27.7704 21.0401C27.2004 20.5201 26.2704 20.1601 24.9904 19.9601C26.2304 19.6601 27.0904 19.1801 27.5704 18.5301C28.0504 17.8701 28.2904 16.7601 28.2704 15.2201C28.2704 14.2101 28.2504 13.2001 28.2404 12.1901C28.2204 9.86011 27.4004 8.30011 25.8004 7.54011C24.8104 7.07011 23.1704 6.87011 20.8904 7.00011C19.4804 7.08011 18.0704 7.17011 16.6704 7.28011C14.9304 8.96011 13.5404 11.0001 12.6104 13.2601C12.6304 13.2601 12.6404 13.2601 12.6604 13.2601C14.9304 13.1301 17.2104 13.0201 19.4904 12.9301C20.3204 12.9001 20.9504 12.9801 21.3304 13.2101C21.8704 13.5401 22.1304 14.1701 22.1404 15.0901C22.1504 16.4501 21.5904 17.1501 20.4704 17.1701C18.2704 17.2201 16.0704 17.2701 13.8704 17.3301C13.8904 19.2101 13.9104 21.0901 13.9204 22.9701C16.0404 22.9801 18.1704 23.0001 20.2904 23.0001C21.9404 23.0001 22.7804 23.7801 22.7904 25.3301C22.8004 26.6701 22.1404 27.3401 20.8004 27.3201C18.2504 27.2801 15.7004 27.2101 13.1504 27.1201C13.0204 27.1201 12.9104 27.1001 12.7904 27.0901C13.7904 29.3501 15.2404 31.3601 17.0304 33.0001C18.6804 33.0901 20.3204 33.1701 21.9704 33.2101C26.6604 33.3401 28.9904 31.3601 28.9504 27.4601C28.9404 26.3801 28.9304 25.2901 28.9204 24.2101H28.9104Z" fill="#043E6C"></path>
<path d="M28.9607 39.93C28.9107 39.93 28.8607 39.93 28.8107 39.93C17.8007 39.85 8.91068 30.83 9.00068 19.82C9.07068 8.86 18.0107 0 28.9507 0C29.0007 0 29.0507 0 29.1007 0C40.1107 0.08 49.0007 9.1 48.9107 20.11C48.8707 25.44 46.7607 30.44 42.9607 34.18C39.2007 37.89 34.2307 39.92 28.9507 39.92L28.9607 39.93ZM28.9507 3C19.6607 3 12.0607 10.53 11.9907 19.84C11.9207 29.19 19.4707 36.86 28.8307 36.93C38.2007 37.03 45.8507 29.45 45.9207 20.09C45.9907 10.73 38.4307 3.07 29.0807 3C29.0407 3 28.9907 3 28.9507 3Z" fill="#327EB0"></path>
</svg></svg><style>@media (prefers-color-scheme: light) { :root { filter: none; } }
@media (prefers-color-scheme: dark) { :root { filter: none; } }
</style></svg>