<svg width="281" height="40" viewBox="0 0 281 40" fill="none" xmlns="http://www.w3.org/2000/svg">
<path d="M193.89 29.98H185.38V8.87H193.89V29.99V29.98ZM168.64 29.98H160.13V14.03H148.48V8.86H180.28V14.03H168.63V29.98H168.64ZM133.96 8.87C138.15 8.87 141.06 9.38 142.7 10.41C144.49 11.55 145.38 13.68 145.38 16.8C145.38 19.45 144.87 21.36 143.85 22.52C142.6 23.99 140.33 24.73 137.04 24.73H121.16V29.99H112.58V8.87H133.96ZM133.66 14.13H121.16V19.47H133.66C134.86 19.47 135.68 19.21 136.14 18.69C136.52 18.26 136.71 17.57 136.71 16.6C136.71 14.95 135.69 14.13 133.65 14.13H133.66ZM86.9203 24.96H92.3403C94.9303 24.96 96.7003 24.77 97.6703 24.38C99.1104 23.82 99.8204 22.67 99.8204 20.92V17.93C99.8204 16.19 99.1003 15.04 97.6703 14.47C96.7003 14.08 94.9203 13.89 92.3403 13.89H86.8904C84.2303 13.89 82.4304 14.08 81.4804 14.47C80.0904 15.03 79.4004 16.22 79.4004 18.04V20.97C79.4004 22.71 80.1303 23.85 81.5903 24.4C82.5403 24.77 84.3103 24.95 86.9203 24.95V24.96ZM84.1904 30.25C79.4404 30.25 76.1804 29.86 74.4203 29.09C71.9704 28.02 70.7403 25.83 70.7403 22.5V16.75C70.7403 13.21 71.9503 10.88 74.3803 9.78C76.1203 9.01 79.5104 8.62 84.5704 8.62H94.5704C99.5504 8.62 102.9 8.99 104.61 9.72C107.14 10.78 108.4 13.04 108.4 16.49V22.39C108.4 25.78 107.2 28.02 104.8 29.1C103.06 29.87 99.7803 30.26 94.9503 30.26H84.1804L84.1904 30.25Z" fill="#002488"/>
<path d="M245.27 29.98H236L251.21 8.86H262.05L276.99 29.98H267.64L264.96 26.47H247.98L245.26 29.98H245.27ZM251.21 21.39H261.9L256.5 13.93L251.21 21.39ZM211.66 16.71L222.81 8.87H234.11L219.04 19.3L236.09 29.99H224.26L211.65 22H208.09V29.99H199.58V8.87H208.09V16.71H211.66Z" fill="#002488"/>
<path d="M57.8403 9.92C56.3703 8.99 54.1303 8.51 51.1303 8.49L44.3003 8.44C45.5203 10.06 46.4803 11.87 47.1403 13.83H49.0503C52.3303 13.87 53.9603 15.12 53.9403 17.6L53.9103 21.44C53.8903 23.82 52.5203 25 49.8103 24.98L47.4903 24.96C46.9804 26.86 46.1903 28.63 45.1603 30.25L52.9203 30.31C55.4603 30.33 57.3403 29.82 58.5703 28.79C59.8803 27.68 60.5403 25.88 60.5603 23.38L60.6203 15.88C60.6403 13.08 59.7203 11.1 57.8503 9.92H57.8403Z" fill="#002488"/>
<path d="M6.48035 16.91C6.48035 15.91 6.66035 15.22 6.99035 14.84C7.32035 14.46 7.98035 14.28 8.96035 14.28H10.6103C11.1603 12.5 11.9703 10.83 12.9903 9.3L8.49035 9.27C5.85035 9.25 3.92035 9.62 2.69035 10.37C1.10035 11.32 0.300349 13.01 0.280349 15.45C0.280349 15.97 0.290349 16.44 0.330349 16.86L6.48035 16.91Z" fill="#002488"/>
<path d="M10.9603 26.63H9.23035C8.13035 26.61 7.38035 26.48 6.98035 26.24C6.44035 25.9 6.18035 25.21 6.19035 24.19C6.19035 23.81 6.19035 23.56 6.19035 23.44L0.0703489 23.48C0.0303489 24.57 0.000348853 25.19 0.000348853 25.35C-0.0196511 28.01 0.820349 29.78 2.51035 30.68C3.66035 31.29 5.71035 31.6 8.65035 31.63L13.7403 31.67C12.5703 30.16 11.6303 28.46 10.9503 26.64L10.9603 26.63Z" fill="#002488"/>
<path d="M37.4904 26.4C37.4704 24.21 37.4504 22.02 37.4304 19.82C37.4104 17.63 37.3904 15.44 37.3703 13.25C40.0303 13.28 42.7004 13.32 45.3604 13.39C44.3804 10.95 42.8703 8.78 40.9804 7.03C40.7003 7.02 40.4204 7 40.1404 6.99C37.0403 6.88 33.9304 6.87 30.8304 6.86C30.8704 11.2 30.9104 15.53 30.9604 19.86C31.0004 24.19 31.0404 28.53 31.0904 32.86C34.5104 32.79 37.9303 32.7 41.3503 32.5C41.3804 32.5 41.4104 32.5 41.4304 32.5C43.2304 30.71 44.6404 28.54 45.5303 26.12C42.8503 26.24 40.1804 26.34 37.5004 26.42L37.4904 26.4Z" fill="#0073FF"/>
<path fill-rule="evenodd" clip-rule="evenodd" d="M28.9104 24.21C28.9004 22.78 28.5204 21.72 27.7704 21.04C27.2004 20.52 26.2704 20.16 24.9904 19.96C26.2304 19.66 27.0904 19.18 27.5704 18.53C28.0504 17.87 28.2904 16.76 28.2704 15.22C28.2704 14.21 28.2504 13.2 28.2404 12.19C28.2204 9.86 27.4004 8.3 25.8004 7.54C24.8104 7.07 23.1704 6.87 20.8904 7C19.4804 7.08 18.0704 7.17 16.6704 7.28C14.9304 8.96 13.5404 11 12.6104 13.26C12.6304 13.26 12.6404 13.26 12.6604 13.26C14.9304 13.13 17.2104 13.02 19.4904 12.93C20.3204 12.9 20.9504 12.98 21.3304 13.21C21.8704 13.54 22.1304 14.17 22.1404 15.09C22.1504 16.45 21.5904 17.15 20.4704 17.17C18.2704 17.22 16.0704 17.27 13.8704 17.33C13.8904 19.21 13.9104 21.09 13.9204 22.97C16.0404 22.98 18.1704 23 20.2904 23C21.9404 23 22.7804 23.78 22.7904 25.33C22.8004 26.67 22.1404 27.34 20.8004 27.32C18.2504 27.28 15.7004 27.21 13.1504 27.12C13.0204 27.12 12.9104 27.1 12.7904 27.09C13.7904 29.35 15.2404 31.36 17.0304 33C18.6804 33.09 20.3204 33.17 21.9704 33.21C26.6604 33.34 28.9904 31.36 28.9504 27.46C28.9404 26.38 28.9304 25.29 28.9204 24.21H28.9104Z" fill="#0073FF"/>
<path d="M28.9604 39.93C28.9104 39.93 28.8604 39.93 28.8104 39.93C17.8004 39.85 8.91037 30.83 9.00037 19.82C9.07037 8.86 18.0104 0 28.9504 0C29.0004 0 29.0504 0 29.1004 0C40.1104 0.08 49.0004 9.1 48.9104 20.11C48.8704 25.44 46.7604 30.44 42.9604 34.18C39.2004 37.89 34.2304 39.92 28.9504 39.92L28.9604 39.93ZM28.9504 3C19.6604 3 12.0604 10.53 11.9904 19.84C11.9204 29.19 19.4704 36.86 28.8304 36.93C38.2004 37.03 45.8504 29.45 45.9204 20.09C45.9904 10.73 38.4304 3.07 29.0804 3C29.0404 3 28.9904 3 28.9504 3Z" fill="#002488"/>
</svg>
