<svg width="281" height="40" viewBox="0 0 281 40" fill="none" xmlns="http://www.w3.org/2000/svg">
<path d="M193.89 29.9799H185.38V8.86994H193.89V29.9899V29.9799ZM168.64 29.9799H160.13V14.0299H148.48V8.85994H180.28V14.0299H168.63V29.9799H168.64ZM133.96 8.86994C138.15 8.86994 141.06 9.37994 142.7 10.4099C144.49 11.5499 145.38 13.6799 145.38 16.7999C145.38 19.4499 144.87 21.3599 143.85 22.5199C142.6 23.9899 140.33 24.7299 137.04 24.7299H121.16V29.9899H112.58V8.86994H133.96ZM133.66 14.1299H121.16V19.4699H133.66C134.86 19.4699 135.68 19.2099 136.14 18.6899C136.52 18.2599 136.71 17.5699 136.71 16.5999C136.71 14.9499 135.69 14.1299 133.65 14.1299H133.66ZM86.9203 24.9599H92.3403C94.9303 24.9599 96.7003 24.7699 97.6703 24.3799C99.1104 23.8199 99.8204 22.6699 99.8204 20.9199V17.9299C99.8204 16.1899 99.1003 15.0399 97.6703 14.4699C96.7003 14.0799 94.9203 13.8899 92.3403 13.8899H86.8904C84.2303 13.8899 82.4304 14.0799 81.4804 14.4699C80.0904 15.0299 79.4004 16.2199 79.4004 18.0399V20.9699C79.4004 22.7099 80.1303 23.8499 81.5903 24.3999C82.5403 24.7699 84.3103 24.9499 86.9203 24.9499V24.9599ZM84.1904 30.2499C79.4404 30.2499 76.1804 29.8599 74.4203 29.0899C71.9704 28.0199 70.7403 25.8299 70.7403 22.4999V16.7499C70.7403 13.2099 71.9503 10.8799 74.3803 9.77994C76.1203 9.00994 79.5104 8.61994 84.5704 8.61994H94.5704C99.5504 8.61994 102.9 8.98994 104.61 9.71994C107.14 10.7799 108.4 13.0399 108.4 16.4899V22.3899C108.4 25.7799 107.2 28.0199 104.8 29.0999C103.06 29.8699 99.7803 30.2599 94.9503 30.2599H84.1804L84.1904 30.2499Z" fill="white"/>
<path d="M245.27 29.9799H236L251.21 8.85994H262.05L276.99 29.9799H267.64L264.96 26.4699H247.98L245.26 29.9799H245.27ZM251.21 21.3899H261.9L256.5 13.9299L251.21 21.3899ZM211.66 16.7099L222.81 8.86994H234.11L219.04 19.2999L236.09 29.9899H224.26L211.65 21.9999H208.09V29.9899H199.58V8.86994H208.09V16.7099H211.66Z" fill="white"/>
<path d="M57.8403 9.91994C56.3703 8.98994 54.1303 8.50994 51.1303 8.48994L44.3003 8.43994C45.5203 10.0599 46.4803 11.8699 47.1403 13.8299H49.0503C52.3303 13.8699 53.9603 15.1199 53.9403 17.5999L53.9103 21.4399C53.8903 23.8199 52.5203 24.9999 49.8103 24.9799L47.4903 24.9599C46.9804 26.8599 46.1903 28.6299 45.1603 30.2499L52.9203 30.3099C55.4603 30.3299 57.3403 29.8199 58.5703 28.7899C59.8803 27.6799 60.5403 25.8799 60.5603 23.3799L60.6203 15.8799C60.6403 13.0799 59.7203 11.0999 57.8503 9.91994H57.8403Z" fill="white"/>
<path d="M6.48035 16.9099C6.48035 15.9099 6.66035 15.2199 6.99035 14.8399C7.32035 14.4599 7.98035 14.2799 8.96035 14.2799H10.6103C11.1603 12.4999 11.9703 10.8299 12.9903 9.29994L8.49035 9.26994C5.85035 9.24994 3.92035 9.61994 2.69035 10.3699C1.10035 11.3199 0.300349 13.0099 0.280349 15.4499C0.280349 15.9699 0.290349 16.4399 0.330349 16.8599L6.48035 16.9099Z" fill="white"/>
<path d="M10.9603 26.6299H9.23035C8.13035 26.6099 7.38035 26.4799 6.98035 26.2399C6.44035 25.8999 6.18035 25.2099 6.19035 24.1899C6.19035 23.8099 6.19035 23.5599 6.19035 23.4399L0.0703489 23.4799C0.0303489 24.5699 0.000348853 25.1899 0.000348853 25.3499C-0.0196511 28.0099 0.820349 29.7799 2.51035 30.6799C3.66035 31.2899 5.71035 31.5999 8.65035 31.6299L13.7403 31.6699C12.5703 30.1599 11.6303 28.4599 10.9503 26.6399L10.9603 26.6299Z" fill="white"/>
<path d="M37.4904 26.3999C37.4704 24.2099 37.4504 22.0199 37.4304 19.8199C37.4104 17.6299 37.3904 15.4399 37.3703 13.2499C40.0303 13.2799 42.7004 13.3199 45.3604 13.3899C44.3804 10.9499 42.8703 8.77986 40.9804 7.02986C40.7003 7.01986 40.4204 6.99986 40.1404 6.98986C37.0403 6.87986 33.9304 6.86986 30.8304 6.85986C30.8704 11.1999 30.9104 15.5299 30.9604 19.8599C31.0004 24.1899 31.0404 28.5299 31.0904 32.8599C34.5104 32.7899 37.9303 32.6999 41.3503 32.4999C41.3804 32.4999 41.4104 32.4999 41.4304 32.4999C43.2304 30.7099 44.6404 28.5399 45.5303 26.1199C42.8503 26.2399 40.1804 26.3399 37.5004 26.4199L37.4904 26.3999Z" fill="#043E6C"/>
<path fill-rule="evenodd" clip-rule="evenodd" d="M28.9104 24.2099C28.9004 22.7799 28.5204 21.7199 27.7704 21.0399C27.2004 20.5199 26.2704 20.1599 24.9904 19.9599C26.2304 19.6599 27.0904 19.1799 27.5704 18.5299C28.0504 17.8699 28.2904 16.7599 28.2704 15.2199C28.2704 14.2099 28.2504 13.1999 28.2404 12.1899C28.2204 9.85986 27.4004 8.29986 25.8004 7.53986C24.8104 7.06986 23.1704 6.86986 20.8904 6.99986C19.4804 7.07986 18.0704 7.16986 16.6704 7.27986C14.9304 8.95986 13.5404 10.9999 12.6104 13.2599C12.6304 13.2599 12.6404 13.2599 12.6604 13.2599C14.9304 13.1299 17.2104 13.0199 19.4904 12.9299C20.3204 12.8999 20.9504 12.9799 21.3304 13.2099C21.8704 13.5399 22.1304 14.1699 22.1404 15.0899C22.1504 16.4499 21.5904 17.1499 20.4704 17.1699C18.2704 17.2199 16.0704 17.2699 13.8704 17.3299C13.8904 19.2099 13.9104 21.0899 13.9204 22.9699C16.0404 22.9799 18.1704 22.9999 20.2904 22.9999C21.9404 22.9999 22.7804 23.7799 22.7904 25.3299C22.8004 26.6699 22.1404 27.3399 20.8004 27.3199C18.2504 27.2799 15.7004 27.2099 13.1504 27.1199C13.0204 27.1199 12.9104 27.0999 12.7904 27.0899C13.7904 29.3499 15.2404 31.3599 17.0304 32.9999C18.6804 33.0899 20.3204 33.1699 21.9704 33.2099C26.6604 33.3399 28.9904 31.3599 28.9504 27.4599C28.9404 26.3799 28.9304 25.2899 28.9204 24.2099H28.9104Z" fill="#043E6C"/>
<path d="M28.9602 39.93C28.9102 39.93 28.8602 39.93 28.8102 39.93C17.8002 39.85 8.91019 30.83 9.00019 19.82C9.07019 8.86 18.0102 0 28.9502 0C29.0002 0 29.0502 0 29.1002 0C40.1102 0.08 49.0002 9.1 48.9102 20.11C48.8702 25.44 46.7602 30.44 42.9602 34.18C39.2002 37.89 34.2302 39.92 28.9502 39.92L28.9602 39.93ZM28.9502 3C19.6602 3 12.0602 10.53 11.9902 19.84C11.9202 29.19 19.4702 36.86 28.8302 36.93C38.2002 37.03 45.8502 29.45 45.9202 20.09C45.9902 10.73 38.4302 3.07 29.0802 3C29.0402 3 28.9902 3 28.9502 3Z" fill="white"/>
</svg>
