<svg width="44" height="44" viewBox="0 0 44 44" fill="none" xmlns="http://www.w3.org/2000/svg">
<rect width="44" height="44" rx="10" fill="#83BBE0"/>
<path d="M13.875 14C12.8398 14 12 14.8958 12 16C12 16.6292 12.2773 17.2208 12.75 17.6L20.875 24.1C21.543 24.6333 22.457 24.6333 23.125 24.1L31.25 17.6C31.7227 17.2208 32 16.6292 32 16C32 14.8958 31.1602 14 30.125 14H13.875ZM12 19.5V27.3333C12 28.8042 13.1211 30 14.5 30H29.5C30.8789 30 32 28.8042 32 27.3333V19.5L24.25 25.7C22.918 26.7667 21.082 26.7667 19.75 25.7L12 19.5Z" fill="#043E6C"/>
</svg>
