<svg width="39" height="39" viewBox="0 0 39 39" fill="none" xmlns="http://www.w3.org/2000/svg">
<path fill-rule="evenodd" clip-rule="evenodd" d="M19.5 39C30.2696 39 39 30.2696 39 19.5C39 8.73045 30.2696 0 19.5 0C8.73045 0 0 8.73045 0 19.5C0 30.2696 8.73045 39 19.5 39ZM21.902 23.7397H25.5683L26.2636 19.2261H21.902V16.3424L21.9022 16.3105C21.9129 15.0685 22.5508 13.8975 24.4937 13.8975H26.4533V10.0735C26.4533 10.0735 24.6833 9.76007 22.9134 9.76007C19.3736 9.76007 17.0347 11.9542 17.0347 15.8409V19.2261H13.0524V23.7397H17.0347V34.5849C16.0117 34.4314 15.0225 34.1794 14.0769 33.8389C8.07029 31.6757 3.82353 25.9423 3.82353 19.2261C3.82353 10.6377 10.84 3.67925 19.5 3.67925C28.16 3.67925 35.1765 10.6377 35.1765 19.2261C35.1765 25.9435 30.881 31.6778 24.8599 33.84C23.9132 34.18 22.924 34.4316 21.902 34.5849V23.7397Z" fill="white"/>
</svg>
