<svg width="39" height="39" viewBox="0 0 39 39" fill="none" xmlns="http://www.w3.org/2000/svg">
<path d="M19.5435 9.44531C25.0279 9.44531 29.5547 13.9721 29.5547 19.4565C29.5547 25.0279 25.0279 29.4676 19.5435 29.4676C13.9721 29.4676 9.53237 25.0279 9.53237 19.4565C9.53237 13.9721 13.9721 9.44531 19.5435 9.44531ZM19.5435 25.9855C23.1127 25.9855 25.9855 23.1127 25.9855 19.4565C25.9855 15.8873 23.1127 13.0145 19.5435 13.0145C15.8873 13.0145 13.0145 15.8873 13.0145 19.4565C13.0145 23.1127 15.9743 25.9855 19.5435 25.9855ZM32.2533 9.0971C32.2533 7.79129 31.2087 6.74665 29.9029 6.74665C28.5971 6.74665 27.5525 7.79129 27.5525 9.0971C27.5525 10.4029 28.5971 11.4475 29.9029 11.4475C31.2087 11.4475 32.2533 10.4029 32.2533 9.0971ZM38.8694 11.4475C39.0435 14.6685 39.0435 24.3315 38.8694 27.5525C38.6953 30.6864 37.9989 33.385 35.7355 35.7355C33.4721 37.9989 30.6864 38.6953 27.5525 38.8694C24.3315 39.0435 14.6685 39.0435 11.4475 38.8694C8.31362 38.6953 5.61496 37.9989 3.26451 35.7355C1.00112 33.385 0.304688 30.6864 0.13058 27.5525C-0.0435268 24.3315 -0.0435268 14.6685 0.13058 11.4475C0.304688 8.31362 1.00112 5.5279 3.26451 3.26451C5.61496 1.00112 8.31362 0.304688 11.4475 0.13058C14.6685 -0.0435268 24.3315 -0.0435268 27.5525 0.13058C30.6864 0.304688 33.4721 1.00112 35.7355 3.26451C37.9989 5.5279 38.6953 8.31362 38.8694 11.4475ZM34.6908 30.9475C35.7355 28.423 35.4743 22.3292 35.4743 19.4565C35.4743 16.6708 35.7355 10.577 34.6908 7.9654C33.9944 6.31138 32.6886 4.91853 31.0346 4.30915C28.423 3.26451 22.3292 3.52567 19.5435 3.52567C16.6708 3.52567 10.577 3.26451 8.05245 4.30915C6.31138 5.00558 5.00558 6.31138 4.30915 7.9654C3.26451 10.577 3.52567 16.6708 3.52567 19.4565C3.52567 22.3292 3.26451 28.423 4.30915 30.9475C5.00558 32.6886 6.31138 33.9944 8.05245 34.6908C10.577 35.7355 16.6708 35.4743 19.5435 35.4743C22.3292 35.4743 28.423 35.7355 31.0346 34.6908C32.6886 33.9944 34.0815 32.6886 34.6908 30.9475Z" fill="white"/>
</svg>
