<svg width="44" height="44" viewBox="0 0 44 44" fill="none" xmlns="http://www.w3.org/2000/svg">
<rect width="43.999" height="44" rx="10" fill="#83BBE0"/>
<path d="M22 10C26.9684 10.0001 30.9989 13.9332 30.999 18.7891C30.999 24.3485 25.366 31.0126 23.0127 33.5527C22.4596 34.1493 21.5404 34.1493 20.9873 33.5527C18.6342 31.0128 13 24.3487 13 18.7891C13.0001 13.9332 17.0315 10 22 10ZM21.9775 14.1475C19.3758 14.1475 17.2666 16.2444 17.2666 18.8311C17.2666 21.4177 19.3758 23.5146 21.9775 23.5146C24.5792 23.5146 26.6885 21.4177 26.6885 18.8311C26.6885 16.2444 24.5792 14.1475 21.9775 14.1475Z" fill="#043E6C"/>
</svg>
