<svg width="20" height="20" viewBox="0 0 20 20" fill="none" xmlns="http://www.w3.org/2000/svg">
<path d="M3.28553 7.5784H7.52817M7.52817 7.5784V3.33576M7.52817 7.5784L1.87132 1.92154M14.105 0.75C13.2871 0.75 12.5517 1.2479 12.248 2.00722L11.1928 4.64309C10.92 5.32516 11.0438 6.10195 11.5141 6.6663L12.0815 7.34668C12.7437 8.14134 12.6897 9.30962 11.9582 10.0411L10.0423 11.9588C9.31083 12.6902 8.1416 12.7429 7.34695 12.0807L6.66652 11.5132C6.10218 11.0429 5.3256 10.9201 4.64354 11.1929L2.00709 12.2471C1.24777 12.5509 0.75 13.2861 0.75 14.104L0.750463 16.8552C0.750463 17.9016 1.59856 18.75 2.64499 18.75C11.5397 18.75 18.7505 11.5392 18.7505 2.64453C18.7505 1.5981 17.9022 0.75 16.8557 0.75H14.105Z" stroke="white" stroke-width="1.5" stroke-linecap="round" stroke-linejoin="round"/>
</svg>
