<svg width="44" height="44" viewBox="0 0 44 44" fill="none" xmlns="http://www.w3.org/2000/svg">
<rect width="44" height="44" rx="10" fill="#83BBE0"/>
<path d="M18.2551 12.9771C17.9465 12.2388 17.1418 11.8481 16.3761 12.0552L16.1613 12.1138C13.6377 12.8013 11.4813 15.2468 12.1103 18.2236C13.5596 25.06 18.9388 30.4393 25.7751 31.8886C28.7557 32.5215 31.1973 30.3612 31.8848 27.8376L31.9434 27.6227C32.1543 26.8531 31.7598 26.0484 31.0254 25.7437L27.2244 24.1615C26.5798 23.892 25.8337 24.0795 25.3883 24.6225L23.8805 26.4664C21.1342 25.103 18.9232 22.8216 17.6535 20.0206L19.3802 18.6142C19.9232 18.1728 20.1068 17.4267 19.8412 16.7782L18.2551 12.9771Z" fill="#043E6C"/>
</svg>
