<svg width="135" height="38" viewBox="0 0 135 38" fill="none" xmlns="http://www.w3.org/2000/svg">
<path d="M62.5061 18.8108C62.5061 24.1769 58.6732 28.6585 53.3071 28.6585C47.941 28.6585 44.1081 24.1769 44.1081 18.8108C44.1081 13.4447 47.941 8.96315 53.3071 8.96315C58.6732 8.96315 62.5061 13.4447 62.5061 18.8108ZM72.059 18.8108C72.059 8.07862 63.5676 0 53.2482 0C42.9288 0 34.4373 8.07862 34.4373 18.8108C34.4373 29.543 42.9288 37.6216 53.2482 37.6216C63.5676 37.6216 72.059 29.543 72.059 18.8108ZM76.9533 11.2039C76.9533 4.95332 82.7912 0 89.5135 0C96.7076 0 101.189 3.59705 101.189 3.59705L96.059 10.5553C96.059 10.5553 94.054 8.72727 90.457 8.72727C87.7445 8.72727 85.9754 9.84767 85.9754 11.2039C85.9754 14.801 103.017 15.6855 103.017 26.4177C103.017 33.1401 96.7666 37.6216 89.5725 37.6216C80.6093 37.6216 76.1278 32.6683 76.1278 32.6683L81.4939 25.4742C81.4939 25.4742 84.6192 28.8354 89.5725 28.8354C91.8133 28.8354 93.1695 27.715 93.1695 26.3587C93.1106 22.3489 77.0123 21.9361 76.9533 11.2039ZM29.543 25.769C29.543 31.7838 24.6486 36.7371 18.5749 36.7371H0V0.884521H17.0418C22.4668 0.884521 26.8894 5.30713 26.8894 10.7322C26.8894 12.973 26.2408 14.9779 24.6487 16.9828C27.774 18.8108 29.543 21.9951 29.543 25.769ZM9.19902 14.9779H14.801C16.5111 14.9779 17.9263 13.5627 17.9263 11.8526C17.9263 10.1425 16.5111 8.72727 14.801 8.72727H9.19902V14.9779ZM19.8722 25.2973C19.8722 23.4693 18.398 21.9361 16.5111 21.9361H9.14005V28.6585H16.5111C18.398 28.6585 19.9312 27.1253 19.8722 25.2973ZM108.324 11.2039C108.324 4.95332 114.162 0 120.885 0C128.02 0 132.501 3.59705 132.501 3.59705L127.371 10.5553C127.371 10.5553 125.366 8.72727 121.769 8.72727C119.057 8.72727 117.287 9.84767 117.287 11.2039C117.287 14.801 134.329 15.6855 134.329 26.4177C134.329 33.1401 128.079 37.6216 120.885 37.6216C111.921 37.6216 107.44 32.6683 107.44 32.6683L112.806 25.4742C112.806 25.4742 115.931 28.8354 120.885 28.8354C123.125 28.8354 124.482 27.715 124.482 26.3587C124.482 22.3489 108.324 21.9361 108.324 11.2039Z" fill="#043E6C"/>
</svg>
