<svg width="202" height="99" viewBox="0 0 202 99" fill="none" xmlns="http://www.w3.org/2000/svg">
<path d="M92.164 63.4649C91.8947 62.3146 90.4473 60.5893 87.889 60.5893C83.917 60.5893 80.4836 63.4649 73.1118 63.4649C57.4594 63.4649 45.5097 49.1548 45.5097 31.7324C45.5097 14.31 57.4594 0 73.1118 0C78.8005 0 82.5033 2.30043 86.7782 2.30043C88.7642 2.30043 90.7502 1.15022 90.7502 0.304472H91.3224V18.302H91.0532C91.0532 8.59279 82.8062 0.575107 73.4148 0.575107C69.1398 0.575107 65.74 1.42086 62.6096 3.99193C58.0653 7.98385 55.7764 16.8473 55.7764 31.7324C55.7764 46.6176 58.3346 55.4472 62.6096 59.4729C65.74 62.044 69.1398 62.8898 73.4148 62.8898C84.5229 62.8898 92.1976 53.4512 92.1976 42.5918H92.7699V63.4649C92.7362 63.4649 92.164 63.4649 92.164 63.4649Z" fill="#043E6C"/>
<path d="M131.143 0.575174V1.69156H138.246V29.1614H112.933V1.69156H119.766V0.575174H95.5637V1.69156H103.541V60.3187H95.5637V61.469H119.766V60.3187H112.933V30.2778H138.246V60.3187H131.143V61.469H156.154V60.3187H147.637V1.69156H156.154V0.575174H131.143Z" fill="#043E6C"/>
<path d="M29.8574 92.3217H31.8434C32.6849 92.3217 33.5601 92.0511 34.1323 91.7466C34.7046 91.476 34.9739 90.5964 34.9739 89.4462C34.9739 88.6004 34.7046 87.7208 34.4016 87.1457C34.1323 86.8751 32.9878 86.5706 32.4156 86.5706H30.1267V92.2879H29.8574V92.3217ZM38.9795 98.9185H33.863V98.6479H35.2768L32.4156 92.66H30.1267V98.6479H31.5404V98.9185H26.9962V98.6479H28.1407V86.9428H26.7269V86.6721H33.5601C34.9739 86.6721 36.1183 86.9428 36.6906 87.5179C37.2628 88.093 37.5321 88.9387 37.5321 89.8183C37.5321 90.9685 36.9599 91.8143 36.1183 92.3894C35.849 92.3894 35.2768 92.66 34.4016 92.66C34.1323 92.66 33.2571 92.66 33.2571 92.66C33.2571 92.66 33.5264 93.5058 34.4016 93.8102C34.9739 94.0809 35.5461 94.3853 36.1183 94.3853L38.4073 98.9524H38.9795V98.9185Z" fill="#043E6C"/>
<path d="M18.2106 89.1756L20.4996 94.3178H15.6524L18.2106 89.1756ZM13.3635 98.6142H12.219V98.8848H15.0802V98.6142H13.3635L15.3495 94.6222H20.4659L22.1827 98.6142H20.7689V98.8848H25.6161V98.6142H24.4716L19.0522 86.3339L13.3635 98.6142Z" fill="#043E6C"/>
<path d="M91.5917 89.1756L93.8807 94.3178H89.0335L91.5917 89.1756ZM87.0475 98.6142H85.6337V98.8848H88.4949V98.6142H87.0475L89.0335 94.6222H94.15L95.8667 98.6142H94.4529V98.8848H99.5694V98.6142H98.4249L93.0055 86.3339L87.0475 98.6142Z" fill="#043E6C"/>
<path d="M72.8089 86.6045V86.909H73.9534V98.6141H72.8089V98.9186H75.6701V98.6141H74.2563V86.909L84.4893 98.9186V86.909H85.903V86.6045H82.7726V86.909H84.1863V95.1973L77.0838 86.6045H72.8089Z" fill="#043E6C"/>
<path d="M66.2786 86.6045V86.909H67.4231V98.6141H66.2786V98.9186H71.1258V98.6141H69.6784V86.909H71.1258V86.6045H66.2786Z" fill="#043E6C"/>
<path d="M45.8126 86.6046C42.9514 86.6046 41.5376 88.6006 41.5376 92.897C41.5376 93.4721 41.5376 95.1974 42.1099 96.3138C42.6821 98.0391 44.0959 98.8849 45.8126 98.8849C47.5293 98.8849 48.9431 98.0391 49.5153 96.3138C50.0875 94.8929 50.0875 93.4382 50.0875 92.897C50.3568 88.905 48.9431 86.6046 45.8126 86.6046ZM45.8126 98.9187C43.2544 98.9187 41.8406 97.7685 40.9654 96.9227C39.8209 95.7725 39.2487 94.3517 39.2487 92.6263C39.2487 90.901 39.8209 89.2095 40.9654 88.0593C42.1099 86.9091 44.0959 86.0633 45.8126 86.0633C47.7986 86.0633 49.5153 86.6385 50.6598 87.7887C51.8043 88.9389 52.6458 90.6642 52.6458 92.3557C52.6458 94.0472 51.8043 95.7725 50.6598 96.9227C49.4816 98.3436 47.7986 98.9187 45.8126 98.9187Z" fill="#043E6C"/>
<path d="M64.5617 98.9186H54.3287V98.648H55.7425V86.9428H54.3287V86.6722H59.1759V86.9428H57.7285V98.648H61.1283C63.1143 98.648 63.9895 95.2312 63.9895 93.5058H64.2587V98.9525H64.5617V98.9186Z" fill="#043E6C"/>
<path d="M114.65 86.6045V86.909H115.76V92.3218H109.533V86.909H110.947V86.6045H106.1V86.909H107.244V98.6141H106.1V98.9186H110.947V98.6141H109.533V92.6262H115.76V98.6141H114.65V98.9186H119.463V98.6141H118.049V86.909H119.463V86.6045H114.65Z" fill="#043E6C"/>
<path d="M131.985 98.9184H121.449V98.6478H122.863V86.9427H121.449V86.672H131.985V90.9684H131.716C131.716 88.9725 130.571 86.9765 128.854 86.9765H125.152V92.4231H126.868C128.585 92.4231 128.854 91.5774 128.854 89.5476H129.124V95.5355H128.854C128.854 94.3852 128.854 93.8101 128.585 93.235C128.316 92.6599 127.744 92.6599 127.171 92.6599H125.185V98.9523H128.888C130.605 98.9523 131.749 96.3812 131.749 93.8101H132.019C131.985 93.7425 131.985 98.9184 131.985 98.9184Z" fill="#043E6C"/>
<path d="M138.246 92.3217H140.232C141.073 92.3217 141.949 92.051 142.521 91.7466C143.093 91.4759 143.362 90.5964 143.362 89.4461C143.362 88.6004 143.093 87.7208 142.79 87.1457C142.521 86.8751 141.376 86.5706 140.804 86.5706H138.515V92.2878H138.246V92.3217ZM147.334 98.9185H142.218V98.6479H143.632L140.77 92.66H138.515V98.6479H139.357V98.9185H134.812V98.6479H135.957V86.9427H134.543V86.6721H141.376C142.79 86.6721 143.935 86.9427 144.507 87.5178C145.079 88.0929 145.348 88.9387 145.348 89.8183C145.348 90.9685 144.776 91.8142 143.935 92.3893C143.665 92.3893 143.093 92.66 142.218 92.66C141.949 92.66 141.073 92.66 141.073 92.66C141.073 92.66 141.343 93.5057 142.218 93.8102C142.79 94.0808 143.362 94.3853 143.935 94.3853L146.224 98.9523H147.334V98.9185Z" fill="#043E6C"/>
<path d="M151.912 92.3217H153.898C154.74 92.3217 155.615 92.051 156.187 91.7466C156.759 91.4759 157.029 90.5964 157.029 89.4461C157.029 88.6004 156.759 87.7208 156.456 87.1457C156.187 86.8751 155.043 86.5706 154.47 86.5706H152.182V92.2878H151.912V92.3217ZM161.001 98.9185H155.884V98.6479H157.298L154.437 92.66H152.148V98.6479H153.562V98.9185H149.017V98.6479H150.162V86.9427H148.748V86.6721H155.581C156.995 86.6721 158.14 86.9427 158.712 87.5178C159.284 88.0929 159.553 88.9387 159.553 89.8183C159.553 90.9685 158.981 91.8142 158.14 92.3893C157.87 92.3893 157.298 92.66 156.423 92.66C156.154 92.66 155.278 92.66 155.278 92.66C155.278 92.66 155.548 93.5057 156.423 93.8102C156.995 94.0808 157.567 94.3853 158.14 94.3853L160.428 98.9523H161.001V98.9185Z" fill="#043E6C"/>
<path d="M178.908 92.3217H180.894C181.736 92.3217 182.611 92.051 183.183 91.7466C183.756 91.4759 184.025 90.5964 184.025 89.4461C184.025 88.6004 183.756 87.7208 183.453 87.1457C183.183 86.8751 182.308 86.5706 181.467 86.5706H179.178V92.2878H178.908V92.3217ZM188.031 98.9185H182.914V98.6479H184.328L181.467 92.66H179.178V98.6479H180.591V98.9185H176.047V98.6479H177.192V86.9427H175.778V86.6721H182.611C184.025 86.6721 185.169 86.9427 185.742 87.5178C186.314 88.0929 186.583 88.9387 186.583 89.8183C186.583 90.9685 186.011 91.8142 185.169 92.3893C184.9 92.3893 184.328 92.66 183.453 92.66C183.183 92.66 182.308 92.66 182.308 92.66C182.308 92.66 182.577 93.5057 183.453 93.8102C184.025 94.0808 184.597 94.3853 185.169 94.3853L187.458 98.9523H188.031V98.9185Z" fill="#043E6C"/>
<path d="M194.292 89.1756L196.581 94.3178H191.733L194.292 89.1756ZM189.747 98.6142H188.906V98.8848H191.464V98.6142H189.747L191.733 94.6222H196.85L198.567 98.6142H197.153V98.8848H202V98.6142H200.856L195.436 86.3339L189.747 98.6142Z" fill="#043E6C"/>
<path d="M172.95 98.9188H162.415V98.6481H163.828V86.943H162.415V86.6723H172.95V90.9687H172.681C172.681 88.9728 171.537 86.9768 169.82 86.9768H166.117V92.4234H167.834C169.551 92.4234 169.82 91.5777 169.82 89.5479H170.089V95.5358H169.82C169.82 94.3855 169.82 93.8104 169.551 93.2353C169.281 92.6602 168.709 92.6602 168.137 92.6602H166.42V98.9526H170.123C171.84 98.9526 172.984 96.3815 172.984 93.8104H173.253V98.9526H172.95V98.9188Z" fill="#043E6C"/>
<path d="M6.53025 98.9186C5.11648 98.9186 3.972 98.6479 3.13048 98.0728C1.41376 96.9226 0.269288 94.9267 0 92.9307C0 90.9347 1.14448 88.6343 3.13048 87.4841C4.27495 86.909 5.41943 86.6383 6.53025 86.6383C7.37177 86.6383 8.51625 86.909 9.39144 87.2134C9.66072 87.4841 10.233 87.4841 10.5359 87.4841C11.1081 87.4841 11.3774 87.2134 11.6804 86.909H11.9497V90.9009H11.3774C11.3774 88.9049 9.08849 86.909 7.10248 86.6045H6.83319C5.41943 86.6045 4.54424 86.8751 3.70272 87.7547C2.55824 88.6005 2.28895 90.3258 1.986 92.6262C1.986 92.6262 1.986 92.6262 1.986 92.8969C1.986 95.1973 2.55824 96.8888 3.70272 98.039C4.54424 98.8848 5.68872 99.1892 6.83319 98.8848C7.97767 98.8848 9.12215 98.3096 9.96367 97.4639C11.1081 96.6181 11.3774 95.7386 11.3774 94.5883H11.6467V98.8848H11.3774C11.1081 98.3096 10.8052 98.3096 10.233 98.3096C9.96367 98.3096 9.66072 98.3096 9.08849 98.5803C8.24696 98.9186 7.40543 98.9186 6.53025 98.9186Z" fill="#043E6C"/>
</svg>
