<svg width="157" height="38" viewBox="0 0 157 38" fill="none" xmlns="http://www.w3.org/2000/svg">
<path d="M22.3865 0.949987V14.4873H9.83827V0.949987H0V37.1089H9.89719V22.6216H22.4454V37.1089H32.3426V0.949987H22.3865ZM56.9677 37.9995C48.8968 37.9995 40.8259 32.5965 40.8259 21.731V0.949987H50.7231V22.6216C50.7231 27.134 54.3167 28.9153 56.9677 28.9153C59.6777 28.9153 63.2713 27.134 63.2713 22.6216V0.949987H73.1096V21.731C73.1096 32.5965 65.0387 38.0589 56.9677 37.9995ZM98.206 37.9995C87.8964 37.9995 79.3542 29.8652 79.3542 18.9998C79.3542 8.13427 87.8964 0 98.206 0C105.393 0 109.871 3.62183 109.871 3.62183L104.274 10.628C104.274 10.628 102.271 8.78739 98.206 8.78739C92.845 8.78739 89.0158 13.5373 89.0158 18.9404C89.0158 24.3434 92.7861 28.9153 98.206 28.9153C102.683 28.9153 104.922 27.0747 104.922 27.0747V22.5622H97.3223V14.7248H113.464V31.7059C113.464 31.7059 108.516 37.9995 98.206 37.9995ZM138.148 9.08426C132.787 9.08426 128.958 13.5967 128.958 19.0591C128.958 24.5216 132.728 29.034 138.148 29.034C143.509 29.034 147.338 24.5216 147.338 19.0591C147.338 13.5967 143.509 9.08426 138.148 9.08426ZM138.148 37.9995C127.839 37.9995 119.296 29.8652 119.296 18.9998C119.296 8.13427 127.839 0 138.148 0C148.458 0 157 8.13427 157 18.9998C157 29.8652 148.458 37.9995 138.148 37.9995Z" fill="#043E6C"/>
</svg>
