<svg width="213" height="40" viewBox="0 0 213 40" fill="none" xmlns="http://www.w3.org/2000/svg">
<path d="M28.8895 1.37621L22.2703 15.4171L14.2912 1.37621H0V6.83681H3.62764V33.3433H0V38.8526H13.0411V33.3035H9.61961V18.4572L19.634 35.9276L29.4247 14.2046V33.2681H25.9593V38.8526H44.6327V33.2681H40.9568V6.83681H44.5581V1.37621H28.8895Z" fill="#043E6C"/>
<path d="M46.8918 6.91204H50.73V33.2681H47.0409V38.8659H65.7143V33.2681H62.0384V6.83681H65.7888V1.37621H46.8918V6.91204Z" fill="#043E6C"/>
<path d="M194.103 1.37621V6.91204H197.941V33.2681H194.252V38.8659H212.925V33.2681H209.25V6.83681H213V1.37621H194.103Z" fill="#043E6C"/>
<path d="M178.798 6.83681H182.487V18.0943L172.929 1.37621H159.814V6.83681H163.213V33.2105H159.814V38.9057H173.004V33.2105H169.161V18.0943L180.435 38.9057H188.436V6.83681H191.901V1.37621H178.798V6.83681Z" fill="#043E6C"/>
<path d="M125.156 24.5417C125.156 24.5417 123.752 20.0724 117.914 17.727C117.914 17.727 108.623 14.0232 108.351 10.3681C108.351 10.3681 107.974 6.27925 112.672 6.60671C112.672 6.60671 118.076 6.71734 118.186 12.2222V13.0408H124.02V1.31869H118.348V3.28787C116.014 0.805372 112.08 0.137183 110.25 0.0840817H109.759C107.133 0.046331 104.568 0.886537 102.464 2.47365C102.464 2.47365 95.6565 6.94302 98.1963 15.0675C98.1963 15.0675 99.2754 19.3201 104.412 21.9884C104.412 21.9884 109.544 24.878 111.382 25.5861C111.382 25.5861 116.729 28.0951 113.812 31.529C113.812 31.529 111.273 34.1442 107.057 30.821C107.057 30.821 103.987 28.6925 103.061 25.2586H98.4113V38.8349H103.815V36.9276C103.815 36.9276 112.246 43.0874 120.405 37.9631C120.405 37.9631 128.674 33.0026 125.16 24.5506" fill="#043E6C"/>
<path d="M94.8933 24.5417C94.8933 24.5417 93.4896 20.0724 87.6556 17.727C87.6556 17.727 78.3605 14.0232 78.0886 10.3681C78.0886 10.3681 77.7113 6.27925 82.4137 6.60671C82.4137 6.60671 87.8179 6.71734 87.9231 12.2222V13.0408H93.7616V1.31869H88.0854V3.28787C85.7518 0.805372 81.8215 0.137183 79.988 0.0840817H79.4967C76.8703 0.046331 74.3053 0.886537 72.2019 2.47365C72.2019 2.47365 65.394 6.94302 67.9338 15.0675C67.9338 15.0675 69.0173 19.3201 74.1495 21.9884C74.1495 21.9884 79.2817 24.878 81.1197 25.5861C81.1197 25.5861 86.4712 28.0951 83.5498 31.529C83.5498 31.529 81.01 34.1442 76.799 30.821C76.799 30.821 73.7284 28.6925 72.7985 25.2586H68.1488V38.8349H73.5486V36.9276C73.5486 36.9276 81.9794 43.0874 90.1383 37.9631C90.1383 37.9631 98.4069 33.0026 94.8933 24.5506" fill="#043E6C"/>
<path d="M143.189 0C134.03 0 126.998 8.99184 126.998 20.0856C126.998 31.1794 134.017 39.5562 143.189 39.5562C152.361 39.5562 159.45 31.1484 159.45 20.0856C159.45 9.02282 152.343 0 143.189 0ZM143.263 32.507C141.303 32.507 138.973 27.9491 138.973 19.7493C138.973 12.2266 141.303 7.21294 143.263 7.21294C145.224 7.21294 147.707 11.6381 147.707 19.7493C147.707 28.4801 145.224 32.507 143.263 32.507Z" fill="#043E6C"/>
</svg>
