<svg width="231" height="67" viewBox="0 0 231 67" fill="none" xmlns="http://www.w3.org/2000/svg">
<path d="M69.5226 18.2596C70.1166 18.9669 71.0931 19.2377 71.6216 18.6358C72.5226 17.6075 73.0411 13.1132 73.0411 11.5733C73.0411 10.0334 71.5612 9.25091 70.9773 9.00512C70.3934 8.75934 69.5579 8.61889 69.1703 9.64717C68.7827 10.6754 68.7827 15.8118 68.9136 16.5793C68.9689 16.9003 69.1048 17.758 69.5226 18.2596Z" fill="#043E6C"/>
<path d="M58.333 44.423C53.5511 42.0806 44.6567 41.7495 39.7087 41.7495C34.7607 41.7495 20.2237 41.3934 17.5811 41.268C14.9384 41.1426 8.6666 39.5124 8.41492 35.5598C8.14311 31.2962 12.6331 29.2998 15.774 28.6427C17.1281 28.3568 20.6566 27.785 24.467 27.5392C29.5056 27.2132 35.0476 27.2483 36.7641 27.2031C39.7842 27.1179 71.1636 27.6144 72.3364 27.5392C73.469 27.469 76.1116 23.3609 75.4421 23.3609C43.655 22.463 22.2321 23.5465 14.7874 26.0444C7.07095 28.6377 6.14477 32.9715 6.14477 35.3993C6.14477 39.6629 8.53069 42.2361 12.5928 43.6706C17.6012 45.4463 25.0861 45.5566 32.9939 45.7623C35.3849 45.8225 44.3144 45.4664 51.5477 46.4445C57.739 47.2821 62.9437 49.2334 62.9437 53.6926C62.9437 58.5079 56.9286 60.6598 49.9118 61.6128C42.9252 62.5608 34.9419 62.3151 30.8899 62.3151C28.8462 62.3151 5.10282 61.3119 3.84443 61.3119C2.58603 61.3119 -0.499556 65.6557 0.0692391 65.6557C0.638034 65.6557 24.5224 66.4934 28.3831 66.4934C37.1718 66.4934 43.8866 66.0169 49.041 65.124C54.6937 64.1409 58.4689 62.6511 61.041 60.725C63.9303 58.5631 64.8817 55.2325 64.8817 53.3716C64.8817 49.444 63.1199 46.7655 58.338 44.428L58.333 44.423Z" fill="#043E6C"/>
<path d="M227.794 47.0113C227.622 47.6082 226.148 51.4504 223.767 54.9516C220.47 59.8021 215.149 66.1423 208.49 64.3365C206.602 63.8249 204.679 62.6511 202.872 60.5545C202.686 60.3087 202.731 59.8321 202.933 59.2553C203.139 58.6735 204.106 56.9831 205.223 54.761C207.035 51.1645 209.064 45.1303 209.396 38.5694C209.713 32.3395 206.471 30.5588 204.629 30.6291C201.986 30.6291 199.852 35.5397 199.258 37.2351C198.825 38.4791 197.622 43.0938 197.768 48.2703C197.924 53.6524 199.787 59.4008 199.928 59.8071C200.069 60.2134 199.928 60.6447 199.676 61.0611C199.565 61.2467 199.178 61.9439 198.528 62.606C197.703 63.4537 196.525 64.2713 195.674 64.2262C194.874 64.181 193.465 63.7496 192.488 62.3803C191.627 61.1664 191.139 59.0998 190.862 57.8057C190.575 56.4664 190.173 49.3638 190.6 42.4166C191.053 35.0632 191.934 27.9756 192.327 26.7066H226.263C226.893 26.7066 231.257 22.6085 230.96 22.1922C230.668 21.7758 192.976 22.2523 192.976 22.2523C192.976 21.4147 194.678 13.058 195.302 11.2372C195.553 10.3996 192.03 6.88837 191.778 7.64077C191.527 8.39317 189.176 20.266 189.176 22.2724C188.255 22.2724 182.129 22.1871 182.129 22.1871C182.214 20.7676 183.407 12.1552 183.725 10.6504C184.042 9.14557 180.493 7.26457 180.287 7.97684C180.075 8.68911 178.107 18.676 177.936 22.1871C176.678 22.2724 106.122 22.5232 105.618 22.5232C106.207 19.9299 107.546 7.56052 107.214 4.71645C106.912 2.66491 102.905 -0.665707 101.929 0.116787C100.952 0.899282 98.4909 4.96725 97.1469 9.14557C96.5429 11.0266 95.1486 15.4457 94.1469 20.5018C92.9238 26.6965 92.1234 33.6386 92.0328 35.4795C91.9573 37.0094 91.5043 41.3884 91.313 46.0131C91.0815 51.5106 91.1117 57.284 91.1117 58.0515C91.1117 58.9293 89.8382 60.1682 88.907 61.2416C87.6133 62.7364 86.0479 64.2061 84.9053 64.5723C83.9891 64.8632 82.5948 64.9735 81.6435 64.3516C80.4153 63.554 79.776 61.9338 79.5596 61.357C79.4438 61.0561 79.2475 60.4441 79.2374 59.8522C79.2274 59.3105 79.3885 58.7938 79.5395 58.4678C79.6804 58.1618 81.8398 54.1992 83.8029 48.0947C85.6301 42.4116 87.3919 34.6519 88.7811 27.8703C91.2224 15.9773 90.6083 6.35166 90.5328 4.87696C90.4573 3.40226 86.8784 -0.630595 85.7509 0.447842C84.9455 1.21529 83.4556 4.03929 82.313 6.75294C81.4069 8.90982 80.672 11.1068 80.5613 11.5181C78.7895 17.8333 77.7878 24.1634 77.3096 32.2944C76.6099 44.2073 76.9874 57.9261 77.1133 59.6415C77.1837 60.5845 76.5898 62.2499 75.4371 63.4086C74.4958 64.3566 73.1267 64.9083 71.9085 64.9083C71.0478 64.9083 69.8347 64.2462 69.2307 62.8819C68.8934 62.1194 68.8884 61.026 68.8884 59.9776C68.9337 58.844 69.1149 52.5238 69.6334 46.8006C70.0713 41.9652 70.8515 37.5712 70.9018 36.9041C71.0176 35.4494 67.2575 33.9246 67.2122 34.3108C66.9052 35.6099 65.1937 51.952 66.125 58.8891C66.2558 60.6498 67.2726 66.679 71.5763 66.9147C74.6821 66.9147 76.5243 64.8231 78.2861 61.7332C78.578 62.3502 78.8448 63.544 79.5244 64.5622C80.4103 65.8915 81.8348 67 83.4053 67C84.9053 67 86.667 65.9065 88.011 64.6074C89.219 63.4386 90.0194 62.0592 90.5378 61.2316C90.5982 62.4003 90.5781 64.1058 90.8147 65.129C90.9355 65.6407 92.9741 66.358 93.1352 65.7009C93.1855 65.4501 93.0194 63.4738 93.0043 61.8235C92.964 57.6502 93.3868 57.2339 93.704 56.2156C94.016 55.1974 99.2157 43.8512 101.647 40.6811C104.818 36.5529 105.941 36.5529 106.308 36.6482C106.353 36.6683 106.499 36.7887 106.439 37.0144C105.91 38.9656 103.222 47.7336 103.373 52.3633C103.54 57.5449 104.214 62.9822 108.155 65.3196C112.097 67.6621 115.54 62.7264 116.124 60.5545C116.793 62.1445 118.978 66.1573 122.33 66.1573C123.659 66.1573 125.154 65.0889 126.312 63.3484C128.149 60.5896 129.427 56.3962 130.046 54.0337C130.812 53.8882 133.988 53.6976 135.417 51.1896C136.243 62.7364 138.503 65.5604 140.451 65.736C141.78 65.7811 142.993 65.1391 144.694 63.4437C146.063 62.0793 147.01 60.0278 147.558 58.8641C147.689 58.528 147.79 58.3524 147.961 58.9995C148.61 61.0059 150.493 66.2727 154.293 66.2376C157.953 66.2025 159.88 64.0757 160.54 63.1427C160.741 62.8317 160.802 62.8267 160.993 63.0323C161.365 63.3835 161.823 64.1359 162.614 64.6926C163.58 65.3698 164.969 65.8212 166.288 65.8212C167.406 65.8212 169.469 65.119 171.035 63.1026C173.265 60.2334 174.83 56.958 175.676 55.3629C175.832 55.0519 175.907 55.1422 176.043 55.7441C176.401 57.2088 177.075 60.2083 178.233 62.4655C179.315 64.5723 180.679 65.7911 181.897 65.8263C184.243 65.756 186.704 61.969 187.661 59.6466C187.832 59.2252 187.978 58.543 188.079 58.543C188.179 58.543 188.381 59.5362 188.708 60.2836C189.201 61.4122 189.916 62.8116 190.857 63.9352C192.111 65.435 193.882 66.3529 195.156 66.3279C198.186 66.2677 200.698 64.0255 201.518 62.0693C201.599 61.8686 201.624 61.7733 201.871 62.0592C203.255 63.3534 204.574 64.2663 205.782 64.9184C210.146 67.2658 214.213 67.0752 217.857 64.9384C219.463 63.9954 222.211 61.8436 225.101 58.3825C227.93 54.9917 229.807 50.7281 229.973 50.1112C230.099 49.5243 227.919 46.4344 227.794 47.0163V47.0113ZM79.5143 46.1786C79.766 39.4622 80.6468 30.1074 81.8398 22.1871C82.6703 16.6344 83.9388 11.9896 85.1267 9.07033C85.6402 7.81132 86.4103 6.35668 87.0949 5.56917C87.7895 4.77163 88.3885 4.66127 88.5395 6.13597C88.5798 6.51719 88.761 11.0366 88.2828 15.9272C87.714 21.7106 86.4405 28.417 86.2744 29.7111C86.1083 31.0053 84.563 39.6378 82.7861 46.1887C81.8046 49.8102 80.6015 53.3314 80.0277 54.5202C79.6502 55.2475 79.5697 54.8663 79.5495 54.6456C79.4086 53.6274 79.3633 50.2265 79.5143 46.1786ZM93.5781 50.9187C93.5781 50.367 94.464 38.2082 96.5479 26.9172C97.7812 20.2409 99.4322 13.8155 100.711 9.78762C102.09 5.42872 103.303 4.89703 103.917 5.0475C104.531 5.19798 104.763 6.28144 104.798 7.34984C104.833 8.35806 104.375 18.365 102.019 28.0809C99.3516 39.081 94.7358 49.8955 94.5848 50.1964C93.855 51.932 93.5832 51.2899 93.5781 50.9137V50.9187ZM126.639 47.3875C126.724 49.6848 127.716 51.7915 127.837 51.9871C128.159 54.7008 126.08 60.404 125.431 61.4072C124.988 62.0893 124.515 62.7765 123.916 63.2129C123.317 63.6443 122.587 63.8249 122.179 63.8148C120.457 63.7747 119.119 61.2216 118.822 60.0127C118.676 59.4158 118.404 57.4245 118.409 55.388C118.409 53.2913 118.696 51.1445 118.781 50.4021C118.947 48.9374 120.417 43.3396 121.424 41.4134C122.431 39.4923 123.981 37.6113 124.988 37.1498C125.456 36.9342 126.206 36.8238 126.749 37.1498C127.379 37.5311 127.776 38.3888 127.842 38.5694C127.968 38.9054 128.053 39.3619 127.867 39.6829C127.776 39.8284 127.555 39.6127 127.379 39.7431C127.072 39.9939 126.392 40.6209 126.639 47.3925V47.3875ZM161.023 57.5549C160.963 56.8777 160.897 49.3738 162.05 43.4098C162.926 38.8753 165.015 35.5297 165.412 35.0431C166.334 33.9095 167.471 35.0431 167.688 35.7454C168.448 38.2132 167.773 42.8029 166.449 47.3373C165.694 49.9356 164.582 52.4536 164.164 53.2913C163.298 55.0168 162 57.5549 161.672 58.0414C161.345 58.528 161.129 58.7437 161.023 57.5549ZM177.166 27.9706C177.166 28.3719 176.431 34.0048 175.928 39.8384C175.469 45.1654 175.243 50.7081 175.213 51.5106C175.162 52.3934 174.412 54.3547 173.37 56.3661C171.297 60.3638 168.886 63.7195 166.183 63.7747C163.922 63.8249 161.199 62.3953 162.412 60.0629C162.649 59.6064 164.778 56.953 166.389 53.6675C168.241 49.8854 171.04 44.092 170.094 35.8507C169.52 32.2643 165.699 29.5857 164.919 30.1275C164.265 30.5739 161.959 32.9314 160.359 36.6783C158.552 40.9068 157.766 45.7974 157.766 48.0496C157.766 49.755 157.852 53.186 158.285 55.7742C158.647 57.9411 159.367 59.4309 159.392 59.6014C159.448 59.9776 159.77 60.3036 159.337 60.9507C159.12 61.2768 158.446 62.4956 157.429 63.2531C156.417 64.0055 155.657 64.2964 154.736 64.2964C153.815 64.2964 153.236 63.9402 152.456 62.9521C151.716 62.0141 151.092 60.5344 150.835 59.1149C150.302 56.1554 151.323 47.563 151.484 46.2137C151.646 44.8644 153.488 38.3838 153.543 37.6314C153.216 36.9843 151.052 33.6386 150.563 34.391C149.587 35.8507 148.792 43.465 148.505 45.8927C148.233 48.1951 146.39 56.5818 145.852 57.9311C145.575 58.6183 144.911 60.4993 143.884 61.7483C142.897 62.9521 141.558 63.544 140.924 63.544C139.041 63.544 138.095 61.0209 139.449 47.7888C139.721 45.1453 142.278 36.5529 142.55 35.5798C142.711 34.8224 139.026 31.5871 139.082 32.7709C139.177 34.3008 138.145 39.6077 136.882 43.7208C135.739 47.4376 133.746 51.7213 131.768 51.8266C129.765 51.937 129.765 48.0997 129.82 46.5899C129.875 45.0801 131.174 41.263 130.796 40.9219C130.761 40.8968 130.525 40.8165 130.499 40.5958C130.434 39.9437 130.57 38.5393 130.122 37.3555C129.543 35.8306 128.31 34.6067 127.806 34.1302C126.271 32.6756 123.8 32.6054 122.265 33.7289C119.41 35.8156 116.813 41.8147 116.249 44.2776C114.8 50.6027 114.709 58.1769 114.603 58.849C114.483 59.6365 114.025 61.5376 113.073 62.8217C112.323 63.8299 111.231 64.3566 110.431 64.3566C109.63 64.3566 109.036 63.9804 108.236 62.8116C107.561 61.8335 107.199 60.2184 106.988 58.5782C106.509 54.8713 107.546 48.5913 108.145 45.351C108.739 42.1107 111.583 35.8106 111.785 35.309C112.323 33.9848 112.061 33.0969 109.509 33.2574C106.801 33.428 102.09 37.5762 101.657 37.9524C101.224 38.3286 100.847 38.3286 101.113 37.6815C101.385 37.0345 104.687 25.914 104.798 24.6149C106.046 24.6701 176.144 26.1799 177.282 26.1247C177.282 26.1247 177.171 27.2583 177.171 27.9605L177.166 27.9706ZM187.243 42.2762C187.188 44.8694 187.404 53.2913 187.243 55.2325C187.142 56.4815 186.322 58.8691 185.295 60.5244C184.515 61.7834 183.418 63.7948 182.345 63.7948C181.273 63.7948 180.126 63.7847 179.35 57.9261C178.897 54.3898 179.058 48.8572 179.657 39.9036C179.763 38.2835 181.173 27.5392 181.283 26.6213C181.827 26.6213 188.381 26.6765 188.814 26.6765C188.486 28.0809 187.298 39.6879 187.243 42.2812V42.2762ZM201.433 57.2339C201.186 57.2439 201.1 56.9881 200.944 56.1003C200.35 52.559 200.532 47.5981 201.448 43.3346C202.253 39.5776 203.683 36.3974 204.866 34.8224C205.661 33.764 207.015 32.5301 207.382 36.2269C207.654 38.9506 206.723 44.4381 202.741 55.0971C202.49 55.7692 201.866 57.289 201.433 57.2339Z" fill="#043E6C"/>
<path d="M227.32 16.9404C226.676 16.9404 226.077 16.7849 225.508 16.4689C224.945 16.1529 224.492 15.7115 224.149 15.1397C223.812 14.5679 223.641 13.9459 223.641 13.2838C223.641 12.6217 223.807 12.0197 224.134 11.4479C224.461 10.8761 224.914 10.4297 225.488 10.1036C226.062 9.77758 226.671 9.61206 227.32 9.61206C227.97 9.61206 228.584 9.77758 229.158 10.1036C229.732 10.4297 230.18 10.8761 230.507 11.4479C230.834 12.0197 231 12.6317 231 13.2838C231 13.9358 230.829 14.5679 230.492 15.1397C230.149 15.7115 229.701 16.1579 229.133 16.4689C228.569 16.7799 227.965 16.9404 227.32 16.9404ZM227.32 16.3887C227.869 16.3887 228.383 16.2582 228.861 15.9924C229.339 15.7265 229.721 15.3503 230.008 14.8638C230.295 14.3772 230.441 13.8506 230.441 13.2838C230.441 12.717 230.305 12.2103 230.023 11.7238C229.747 11.2423 229.364 10.861 228.876 10.5801C228.388 10.3043 227.869 10.1638 227.315 10.1638C226.762 10.1638 226.248 10.3043 225.755 10.5801C225.267 10.856 224.884 11.2372 224.607 11.7238C224.33 12.2053 224.19 12.727 224.19 13.2838C224.19 13.8405 224.336 14.3722 224.622 14.8638C224.909 15.3503 225.292 15.7265 225.77 15.9924C226.248 16.2582 226.762 16.3887 227.31 16.3887H227.32ZM226.631 15.561H225.911V11.0316H227.361C227.708 11.0316 227.975 11.0817 228.156 11.1871C228.337 11.2874 228.478 11.4379 228.584 11.6285C228.69 11.8191 228.74 12.0247 228.74 12.2455C228.74 12.5063 228.664 12.7521 228.518 12.9878C228.372 13.2236 228.151 13.4041 227.849 13.5346C228.005 13.6299 228.171 13.8456 228.352 14.1766L229.102 15.5711H228.292L227.668 14.3873L227.522 14.1114C227.356 13.8155 227.23 13.665 227.154 13.665H226.626V15.5711L226.631 15.561ZM226.631 13.1132H227.129C227.456 13.1132 227.683 13.0279 227.814 12.8524C227.94 12.6768 228.005 12.4912 228.005 12.2856C228.005 12.1552 227.98 12.0398 227.924 11.9395C227.874 11.8392 227.799 11.7539 227.698 11.6837C227.597 11.6185 227.426 11.5833 227.174 11.5833H226.631V13.1132Z" fill="#043E6C"/>
</svg>
