<svg width="232" height="39" viewBox="0 0 232 39" fill="none" xmlns="http://www.w3.org/2000/svg">
<path d="M121.527 21.3383H124.327V11.9667H145V9.44362H124.327V2.95564H145.574V0.432532H121.527V21.3383Z" fill="#043E6C"/>
<path d="M175.651 21.3383H201.205V18.8152H178.451V11.9667H200.631V9.44362H178.451V2.95564H201.205V0.432532H175.651V21.3383Z" fill="#043E6C"/>
<path d="M151.748 0.432532H148.948V21.3383H172.205V18.8152H151.748V0.432532Z" fill="#043E6C"/>
<path d="M113.918 18.5989H113.2L94.8243 0.432532H90.0866V21.3383H92.8861V3.1719H93.604L112.052 21.3383H116.718V0.432532H113.918V18.5989Z" fill="#043E6C"/>
<path d="M61.5891 0.432532H35.8193V2.95564H47.0173V21.3383H49.8168V2.95564H61.5891V0.432532Z" fill="#043E6C"/>
<path d="M0 2.95564H11.7723V21.3383H14.5718V2.95564H25.7698V0.432532H0V2.95564Z" fill="#043E6C"/>
<path d="M29.3589 21.3383H32.1584V0.432532H29.3589V21.3383Z" fill="#043E6C"/>
<path d="M69.5569 0.432532L56.4926 20.1848L58.7896 21.7708L62.8094 15.7153H80.755L84.7747 21.7708L87.0718 20.1848L74.0074 0.432532H69.5569ZM64.4604 13.1922L71.7104 2.09057L79.0322 13.1922H64.4604Z" fill="#043E6C"/>
<path d="M220.73 10.8854L232 2.16266L230.349 0L218.505 9.15527L206.804 0L205.153 2.16266L216.28 10.8133L205.01 19.6081L206.661 21.7708L218.505 12.5434L230.349 21.7708L232 19.6081L220.73 10.8854Z" fill="#043E6C"/>
<path d="M123.968 36.6932C124.901 36.6932 125.547 36.1885 125.834 35.5397V36.549H126.552V28.6192H125.834V32.0074C125.547 31.3586 124.901 30.854 124.04 30.854C122.676 30.854 121.671 31.9353 121.671 33.8096C121.671 35.6839 122.604 36.6932 123.968 36.6932ZM125.834 33.8096C125.834 35.3235 125.188 36.1165 124.111 36.1165C123.035 36.1165 122.389 35.2514 122.389 33.8096C122.389 32.2957 123.035 31.5028 124.111 31.5028C125.188 31.4307 125.834 32.2957 125.834 33.8096ZM132.941 34.8909C132.653 35.4677 132.151 36.1165 131.074 36.1165C130.069 36.1165 129.208 35.3956 129.208 33.9538V33.8817H133.443V33.8096C133.443 32.1516 132.653 30.9261 131.002 30.9261C129.495 30.9261 128.49 32.0795 128.49 33.8096C128.49 35.6839 129.495 36.7653 131.074 36.7653C132.51 36.7653 133.156 35.9002 133.515 35.2514L132.941 34.8909ZM130.931 31.4307C132.007 31.4307 132.653 32.3678 132.653 33.305H129.208C129.28 32.1516 129.926 31.4307 130.931 31.4307ZM138.827 31.7911C138.396 31.2865 137.75 30.854 136.817 30.854C135.74 30.854 134.879 31.4307 134.879 32.4399C134.879 33.3771 135.453 33.7375 136.458 33.9538L137.248 34.1701C137.894 34.3142 138.396 34.5305 138.396 35.1072C138.396 35.6839 137.965 36.1165 137.032 36.1165C136.171 36.1165 135.597 35.756 135.238 35.1793L134.663 35.5397C135.022 36.1165 135.812 36.6932 136.96 36.6932C138.181 36.6932 139.114 36.1165 139.114 35.0351C139.114 34.0259 138.396 33.6654 137.463 33.4492L136.745 33.305C136.027 33.1608 135.597 32.9445 135.597 32.3678C135.597 31.719 136.171 31.5028 136.817 31.5028C137.535 31.5028 138.037 31.8632 138.324 32.2957L138.827 31.7911ZM141.554 30.9982H140.837V36.6211H141.554V30.9982ZM141.554 28.6192H140.837V29.7726H141.554V28.6192ZM148.302 30.9982H147.584V31.9353C147.297 31.3586 146.651 30.854 145.79 30.854C144.426 30.854 143.421 31.9353 143.421 33.7375C143.421 35.5397 144.354 36.6211 145.79 36.6211C146.723 36.6211 147.297 36.1885 147.584 35.5397V36.1165C147.584 37.342 147.369 38.3512 145.861 38.3512C144.713 38.3512 144.354 37.7024 144.282 36.9094L143.636 37.1257C143.708 38.207 144.282 39 145.861 39C147.512 39 148.23 38.207 148.23 36.4769L148.302 30.9982ZM147.656 33.7375C147.656 35.1793 147.01 35.9723 145.933 35.9723C144.856 35.9723 144.21 35.1793 144.21 33.6654C144.21 32.2237 144.856 31.3586 145.933 31.3586C146.938 31.4307 147.656 32.2957 147.656 33.7375ZM154.906 33.4492C154.906 32.2237 154.762 31.8632 154.403 31.4307C154.045 31.0702 153.614 30.854 153.04 30.854C152.106 30.854 151.46 31.3586 151.245 31.9353V30.9982H150.527V36.6211H151.245V33.305C151.245 32.8004 151.389 32.3678 151.676 32.0074C151.963 31.719 152.322 31.5749 152.824 31.5749C153.255 31.5749 153.614 31.719 153.829 31.9353C154.116 32.2237 154.188 32.8004 154.188 33.6654V36.6932H154.906V33.4492ZM161.223 34.8909C160.936 35.4677 160.433 36.1165 159.356 36.1165C158.351 36.1165 157.49 35.3956 157.49 33.9538V33.8817H161.725V33.8096C161.725 32.1516 160.936 30.9261 159.285 30.9261C157.777 30.9261 156.772 32.0795 156.772 33.8096C156.772 35.6839 157.777 36.7653 159.356 36.7653C160.792 36.7653 161.438 35.9002 161.797 35.2514L161.223 34.8909ZM159.285 31.4307C160.361 31.4307 160.936 32.3678 160.936 33.305H157.49C157.562 32.1516 158.28 31.4307 159.285 31.4307ZM165.601 36.6932C166.535 36.6932 167.181 36.1885 167.468 35.5397V36.549H168.186V28.6192H167.468V32.0074C167.181 31.3586 166.535 30.854 165.673 30.854C164.309 30.854 163.304 31.9353 163.304 33.8096C163.304 35.6839 164.238 36.6932 165.601 36.6932ZM167.468 33.8096C167.468 35.3235 166.822 36.1165 165.745 36.1165C164.668 36.1165 164.022 35.2514 164.022 33.8096C164.022 32.2957 164.668 31.5028 165.745 31.5028C166.822 31.4307 167.468 32.2957 167.468 33.8096ZM176.512 30.9982H175.22V29.8447C175.22 29.5564 175.292 29.3401 175.364 29.268C175.436 29.1959 175.579 29.1238 175.795 29.1238C176.01 29.1238 176.297 29.1959 176.441 29.268V28.6192C176.297 28.5471 176.01 28.475 175.723 28.475C175.292 28.475 174.933 28.5471 174.718 28.8355C174.574 29.0518 174.431 29.268 174.431 29.7726V30.9982H173.139V31.5749H174.431V36.6211H175.149V31.5749H176.441V30.9982H176.512ZM177.733 33.8096C177.733 35.5397 178.666 36.6932 180.245 36.6932C181.824 36.6932 182.757 35.5397 182.757 33.8096C182.757 32.0074 181.824 30.854 180.245 30.854C178.666 30.854 177.733 32.0074 177.733 33.8096ZM178.451 33.8096C178.451 32.3678 179.168 31.4307 180.245 31.4307C181.322 31.4307 182.04 32.2957 182.04 33.8096C182.04 35.2514 181.322 36.1165 180.245 36.1165C179.168 36.1165 178.451 35.2514 178.451 33.8096ZM187.423 30.854C187.28 30.854 187.208 30.854 187.064 30.854C186.203 30.854 185.557 31.4307 185.342 32.0795V30.9982H184.624V36.6211H185.342V33.4492C185.342 32.2957 186.059 31.5749 186.993 31.5749C187.136 31.5749 187.28 31.5749 187.351 31.5749V30.854H187.423ZM196.898 32.2957C196.54 31.3586 195.822 30.854 194.745 30.854C193.238 30.854 192.233 32.0074 192.233 33.8096C192.233 35.6118 193.238 36.6932 194.745 36.6932C195.822 36.6932 196.54 36.1885 196.898 35.3956L196.324 35.0351C195.965 35.756 195.463 36.1165 194.745 36.1165C193.668 36.1165 192.95 35.2514 192.95 33.8096C192.95 32.3678 193.668 31.4307 194.745 31.4307C195.535 31.4307 196.037 31.8632 196.324 32.6562L196.898 32.2957ZM198.191 33.8096C198.191 35.5397 199.124 36.6932 200.703 36.6932C202.282 36.6932 203.215 35.5397 203.215 33.8096C203.215 32.0074 202.282 30.854 200.703 30.854C199.124 30.854 198.191 32.0074 198.191 33.8096ZM198.908 33.8096C198.908 32.3678 199.626 31.4307 200.703 31.4307C201.78 31.4307 202.498 32.2957 202.498 33.8096C202.498 35.2514 201.78 36.1165 200.703 36.1165C199.626 36.1165 198.908 35.2514 198.908 33.8096ZM211.614 36.549H212.332V33.1608C212.332 32.0795 212.26 31.5749 211.829 31.2144C211.542 30.9261 211.111 30.854 210.752 30.854C209.891 30.854 209.245 31.2865 209.03 32.0074C208.958 31.2144 208.24 30.854 207.594 30.854C206.876 30.854 206.158 31.2144 205.943 31.9353V30.9982H205.225V36.6211H205.943V33.6654C205.943 32.3678 206.517 31.5749 207.451 31.5749C207.881 31.5749 208.168 31.719 208.24 31.9353C208.527 32.2957 208.527 32.8004 208.527 33.6654V36.6932H209.245V33.7375C209.245 32.4399 209.819 31.647 210.752 31.647C211.183 31.647 211.47 31.7911 211.542 32.0074C211.829 32.3678 211.829 32.8725 211.829 33.7375L211.614 36.549ZM216.926 30.9982H215.634V29.8447C215.634 29.5564 215.705 29.3401 215.777 29.268C215.849 29.1959 215.993 29.1238 216.208 29.1238C216.423 29.1238 216.71 29.1959 216.854 29.268V28.6192C216.71 28.5471 216.495 28.475 216.136 28.475C215.705 28.475 215.347 28.5471 215.131 28.8355C214.988 29.0518 214.844 29.268 214.844 29.7726V30.9982H213.552V31.5749H214.844V36.6211H215.562V31.5749H216.854V30.9982H216.926ZM218.146 33.8096C218.146 35.5397 219.079 36.6932 220.658 36.6932C222.238 36.6932 223.171 35.5397 223.171 33.8096C223.171 32.0074 222.238 30.854 220.658 30.854C219.151 30.854 218.146 32.0074 218.146 33.8096ZM218.864 33.8096C218.864 32.3678 219.582 31.4307 220.658 31.4307C221.735 31.4307 222.453 32.2957 222.453 33.8096C222.453 35.2514 221.735 36.1165 220.658 36.1165C219.653 36.1165 218.864 35.2514 218.864 33.8096ZM227.837 30.854C227.693 30.854 227.621 30.854 227.478 30.854C226.616 30.854 225.97 31.4307 225.755 32.0795V30.9982H225.037V36.6211H225.755V33.4492C225.755 32.2957 226.473 31.5749 227.406 31.5749C227.549 31.5749 227.693 31.5749 227.765 31.5749V30.854H227.837ZM228.698 31.5028H229.847V35.5397C229.847 35.9723 229.918 36.1885 230.062 36.4048C230.205 36.6211 230.493 36.6932 230.851 36.6932C231.354 36.6932 231.641 36.6211 231.856 36.4769V35.8281C231.713 35.9002 231.426 36.0444 231.067 36.0444C230.851 36.0444 230.708 35.9723 230.636 35.9002C230.564 35.756 230.564 35.5397 230.564 35.3235V31.5749H231.928V30.9982H230.564V28.7634L229.847 28.9076V30.9982H228.698V31.5028Z" fill="#043E6C"/>
</svg>
