<svg width="574" height="31" viewBox="0 0 574 31" fill="none" xmlns="http://www.w3.org/2000/svg">
<path fill-rule="evenodd" clip-rule="evenodd" d="M255.892 30.0998H232.115V0.70491H255.892V30.0998Z" fill="white"/>
<path fill-rule="evenodd" clip-rule="evenodd" d="M232.115 0.70491H255.892V7.30864H232.115V0.70491ZM232.115 23.49H255.892V30.0998H232.115V23.49Z" fill="#043E6C"/>
<path fill-rule="evenodd" clip-rule="evenodd" d="M255.892 30.0998H279.668V0.70491H255.892V30.0998Z" fill="#327EB0"/>
<path fill-rule="evenodd" clip-rule="evenodd" d="M279.668 0.70491H255.892V7.30864H279.668V0.70491ZM279.668 23.49H255.892V30.0998H279.668V23.49Z" fill="#043E6C"/>
<path fill-rule="evenodd" clip-rule="evenodd" d="M9.79525 30.2773V4.03476H0V0.516805H23.5376V4.03476H13.7424V30.2773H9.79525ZM49.351 6.28333C50.2982 5.35388 51.4203 4.62154 52.6524 4.1287C53.8845 3.63586 55.2021 3.39232 56.529 3.41216C58.4874 3.41216 60.2494 3.91083 61.824 4.90516C63.3986 5.8995 64.5924 7.29882 65.4085 9.10615C66.2275 10.9135 66.6325 13.0261 66.6325 15.45C66.6325 19.2762 65.6775 22.235 63.7674 24.3174C61.8573 26.3997 59.4213 27.4424 56.4655 27.4424C53.5641 27.4424 51.1493 26.4088 49.2271 24.3476C47.3019 22.2834 46.3408 19.4636 46.3408 15.8761C46.3408 11.394 47.3442 8.19644 49.351 6.28333ZM43.9865 23.2233C45.0786 25.5186 46.8184 27.4443 48.9914 28.7632C51.1916 30.1141 53.691 30.7911 56.4867 30.7911C59.0087 30.8065 61.4925 30.1748 63.7009 28.9566C65.9283 27.7356 67.654 25.9313 68.869 23.5497C70.084 21.1681 70.6914 18.4662 70.6914 15.45C70.6914 12.473 70.1142 9.81034 68.9597 7.46202C67.8613 5.17386 66.109 3.26279 63.9245 1.97051C61.7243 0.658838 59.2521 0.00302063 56.5078 0.00302063C52.3189 0.00302063 48.9007 1.39932 46.2532 4.19796C43.6056 6.99056 42.2849 10.8561 42.2849 15.7945C42.2849 18.4088 42.8501 20.881 43.9865 23.2233ZM92.3129 30.2773V0.513784H98.2064L105.257 21.5792C105.907 23.5406 106.379 25.0095 106.678 25.9826C107.022 24.9006 107.551 23.3109 108.274 21.2135L115.461 0.513784H120.716V30.2773H116.93V5.38572L108.234 30.2773H104.686L96.0968 4.95354V30.2773H92.3129ZM143.55 30.2773V0.513784H149.446L156.494 21.5792C157.144 23.5406 157.619 25.0095 157.918 25.9826C158.259 24.9006 158.791 23.3109 159.517 21.2135L166.704 0.513784H171.959V30.2773H168.172V5.38572L159.477 30.2773H155.926L147.337 4.95354V30.2773H143.55ZM203.285 30.2773V17.6683L191.816 0.513784H196.555L202.421 9.52929C203.5 11.1609 204.519 12.8314 205.477 14.5372C206.392 12.9807 207.48 11.2248 208.741 9.26935L214.504 0.513784H219.089L207.239 17.6683V30.2773H203.285ZM298.992 30.2773V0.516805H302.94V12.748H318.359V0.516805H322.315V30.2773H318.359V16.266H302.94V30.2773H298.992ZM342.006 30.2773V0.516805H345.956V30.2773H342.006ZM365.156 30.2773V0.516805H369.107V26.7624H383.771V30.2773H365.156ZM401.058 30.2773V0.516805H421.187V4.03476H405.008V13.2346H419.023V16.7495H405.008V30.2773H401.058ZM439.45 30.2773V0.516805H443.401V30.2773H439.45ZM476.664 18.6173V15.1024H489.273V26.1458C487.475 27.6133 485.456 28.7873 483.292 29.6245C481.271 30.3971 479.126 30.7925 476.963 30.7911C474.047 30.7911 471.396 30.1655 469.012 28.9173C466.681 27.7208 464.788 25.8176 463.605 23.4802C462.396 21.1137 461.779 18.4632 461.779 15.5376C461.779 12.6422 462.387 9.93728 463.599 7.42273C464.811 4.90818 466.551 3.04646 468.818 1.82545C471.085 0.60747 473.705 0 476.664 0C478.813 0 480.756 0.347543 482.491 1.04569C484.232 1.74082 485.589 2.71401 486.583 3.9592C487.568 5.20438 488.318 6.83037 488.832 8.83113L485.29 9.80431C484.842 8.28711 484.292 7.09332 483.624 6.2229C482.962 5.3555 482.02 4.66036 480.789 4.14053C479.491 3.60592 478.098 3.33964 476.694 3.35774C474.893 3.35774 473.336 3.63278 472.031 4.17982C470.713 4.72988 469.658 5.45221 468.86 6.34983C468.067 7.21833 467.43 8.21727 466.978 9.3026C466.21 11.2107 465.825 13.2512 465.844 15.3079C465.844 17.9675 466.298 20.1919 467.213 21.9841C468.129 23.7764 469.45 25.1031 471.197 25.9736C472.921 26.8374 474.823 27.2836 476.752 27.2762C478.45 27.2762 480.115 26.9468 481.738 26.2879C483.361 25.629 484.588 24.9309 485.429 24.1783V18.6173H476.664ZM507.712 30.2773V0.516805H529.134V4.03476H511.662V13.1258H528.001V16.6438H511.662V26.7624H529.844V30.2773H507.712ZM551.738 3.82018H561.158C563.365 3.82018 564.984 4.27049 566.006 5.1802C567.028 6.08689 567.541 7.24746 567.541 8.65282C567.541 9.61391 567.275 10.5025 566.75 11.3215C566.198 12.159 565.384 12.7886 564.434 13.1107C563.413 13.4824 562.008 13.6698 560.209 13.6698H551.738V3.82018ZM551.738 30.2773V17.0759H556.307C557.323 17.0759 558.054 17.1213 558.499 17.218C559.112 17.3661 559.714 17.629 560.3 18.0098C560.889 18.3876 561.557 19.0525 562.301 19.9985C563.044 20.9445 563.99 22.3075 565.145 24.0907L569.077 30.2773H574L568.847 22.1836C567.933 20.7333 566.838 19.4049 565.589 18.2305C565.045 17.7409 564.256 17.2482 563.216 16.7465C566.073 16.3566 568.182 15.4348 569.551 13.9841C570.92 12.5334 571.6 10.7533 571.6 8.64072C571.6 6.99961 571.186 5.50358 570.367 4.14959C569.612 2.85979 568.446 1.86133 567.055 1.31469C565.674 0.782766 563.655 0.513784 561.004 0.513784H547.794V30.2773H551.738Z" fill="#043E6C"/>
</svg>
