<svg width="165" height="81" viewBox="0 0 165 81" fill="none" xmlns="http://www.w3.org/2000/svg">
<path fill-rule="evenodd" clip-rule="evenodd" d="M161.843 17.3262C161.003 17.3262 160.198 17.6573 159.605 18.2467C159.011 18.836 158.678 19.6354 158.678 20.4688C158.678 21.3023 159.011 22.1016 159.605 22.691C160.198 23.2803 161.003 23.6114 161.843 23.6114C162.258 23.6111 162.67 23.5292 163.054 23.3705C163.438 23.2119 163.787 22.9795 164.08 22.6868C164.373 22.3941 164.606 22.0467 164.764 21.6647C164.921 21.2827 165.002 20.8734 165 20.4605C165 19.6292 164.667 18.832 164.075 18.2442C163.483 17.6564 162.68 17.3262 161.843 17.3262ZM161.843 23.2331C161.476 23.2333 161.114 23.1617 160.775 23.0223C160.437 22.883 160.129 22.6786 159.871 22.421C159.612 22.1634 159.407 21.8576 159.268 21.5211C159.129 21.1847 159.058 20.8243 159.059 20.4605C159.06 20.0981 159.132 19.7392 159.272 19.4046C159.412 19.0699 159.617 18.7659 159.876 18.51C160.134 18.2542 160.441 18.0514 160.779 17.9133C161.116 17.7753 161.478 17.7046 161.843 17.7054C162.578 17.7054 163.284 17.9957 163.805 18.5124C164.325 19.0291 164.617 19.7298 164.617 20.4605C164.619 20.8236 164.549 21.1836 164.41 21.5197C164.272 21.8557 164.068 22.1613 163.81 22.4189C163.552 22.6765 163.246 22.881 162.908 23.0208C162.57 23.1605 162.208 23.2326 161.843 23.2331Z" fill="#043E6C"/>
<path fill-rule="evenodd" clip-rule="evenodd" d="M163.469 19.6382C163.469 19.3422 163.337 19.0296 163.071 18.8816C162.806 18.7257 162.508 18.709 162.208 18.709H160.668V22.2216H161.098V20.6006H161.894L162.904 22.2216H163.419L162.349 20.6006C162.979 20.584 163.469 20.3291 163.469 19.6382ZM161.761 20.2635H161.098V19.0217H162.109C162.548 19.0217 163.029 19.0874 163.029 19.6303C163.03 20.3458 162.257 20.2635 161.761 20.2635ZM55.8799 72.2935L35.2556 62.2934C34.8023 62.0605 34.5686 61.465 34.5774 61.0753L34.6321 55.5547C34.6401 55.1658 34.7177 54.7665 35.2318 54.4004C37.4367 53.0045 44.2647 49.252 51.3185 39.0296C60.7129 25.4145 51.3185 13.9757 36.6359 17.0898C23.5955 19.8554 10.3196 26.8665 4.56141 30.6786C-0.570617 34.0755 0.141993 38.1801 0 41.8608C0.284867 43.417 0.855484 43.276 2.13871 41.7189C11.6893 32.9432 26.2299 26.2903 28.9383 25.1579C31.6467 24.0256 38.062 20.2039 45.6176 21.902C52.8751 23.5343 51.1112 33.332 48.8958 37.4725C46.4722 42.0018 39.5586 48.5838 36.4225 50.2118C35.231 50.8301 34.7838 50.2118 34.7838 49.2205L35.283 27.9174C35.283 26.5022 34.6409 25.8647 33.2157 26.3603L30.935 27.4926C29.3669 28.413 29.4384 28.7668 29.2955 29.8992L28.9498 54.4582C28.9383 54.9881 28.6896 55.4137 28.3959 55.5389L20.9558 59.6943C19.2458 60.5437 19.6726 61.8179 20.9558 62.2426L26.9433 65.073C28.3694 65.6387 28.7972 66.0635 28.7972 67.4787L28.5829 79.3694C33.9292 78.308 34.2846 75.7596 34.4275 74.0607V70.4509C34.5695 69.6014 35.0687 69.3186 35.7813 69.4604L53.1723 77.8114C54.7404 78.5199 55.5959 78.2353 56.7362 76.2553C57.8757 74.2752 58.0186 73.2848 55.8799 72.2935ZM86.2725 42.2934C83.856 43.6788 82.7377 46.2719 83.6902 47.9086C84.6409 49.5463 87.516 49.8212 89.9343 48.4341C92.3526 47.0478 93.3986 44.5257 92.4461 42.8889C91.4953 41.2522 88.6908 40.9063 86.2725 42.2934Z" fill="#043E6C"/>
<path fill-rule="evenodd" clip-rule="evenodd" d="M77.3552 44.0554C76.6981 44.8506 75.4308 47.2764 74.7182 48.7625C74.0056 50.2477 72.5089 53.6097 71.0123 53.6097C69.43 53.6097 69.2298 49.7179 69.2298 48.3018C69.2298 46.8858 68.3744 46.6739 67.9466 46.7448C67.5189 46.8157 66.3071 47.2396 65.9508 48.7266C65.5945 50.2127 63.6701 56.6537 61.5314 56.6537C60.1776 56.6537 59.1792 52.7611 59.1087 51.5578C59.0372 50.3554 58.4666 49.3641 57.2548 49.3641C56.3993 49.3641 55.3304 49.7888 54.9027 50.2845C54.4749 50.7802 54.4044 51.5578 52.1228 51.063C50.0555 50.9921 48.0597 52.0544 45.637 56.088C44.1783 58.5164 42.9929 63.0422 45.2093 64.8637C47.2765 66.5618 50.911 63.5186 51.9808 62.2444C53.0497 60.9711 53.9766 60.0507 54.4044 59.344C54.8312 58.6355 55.2599 58.7064 55.4733 59.414C55.6867 60.1225 56.8985 62.8819 58.4675 62.8119C60.0356 62.7409 62.0314 61.5377 64.3836 57.4322C64.8113 56.5828 65.4525 56.6537 65.5954 57.3613C65.7382 58.0698 66.6643 60.4054 68.2324 60.4054C69.729 60.4054 71.3941 58.0444 72.224 56.6546C72.7938 55.6992 73.6493 56.1598 73.6493 57.0793C73.6493 57.9988 73.2215 79.7267 73.2215 79.7267C73.2215 80.7171 73.6131 81 74.3257 81H77.4266C77.9964 81 78.4955 80.5052 78.4955 79.7267L79.1367 44.516C79.1376 43.6657 78.1754 43.065 77.3552 44.0554ZM53.122 57.927C52.48 58.9893 50.7699 61.8197 49.2732 61.3249C48.4892 60.9002 49.5343 58.0689 50.0573 57.0784C50.8413 55.5923 53.1397 53.2252 54.191 53.8225C55.1893 54.3882 53.7632 56.8656 53.122 57.927ZM161.724 36.2193C161.44 36.4672 160.976 36.8919 159.942 36.4313C158.16 35.7237 158.018 32.3976 157.092 29.3536C156.258 26.6195 154.253 26.7912 153.528 28.0444L151.354 31.5123C150.961 32.2199 150.107 33.8479 149.25 33.8479C148.253 33.8479 148.699 32.4318 148.753 31.0166C148.787 30.0612 148.181 28.8588 147.184 28.8588C146.044 28.8588 144.833 30.5919 143.906 32.5745C143.258 33.9608 141.589 39.2625 139.485 39.2625C138.132 39.2625 137.989 35.3699 137.918 34.1666C137.848 32.9634 137.419 31.4772 136.208 31.4772C135.388 31.4772 134.854 31.9011 134.426 32.3968C133.999 32.8924 133.928 33.3163 132.431 33.1044C130.363 33.0334 126.942 34.9451 124.519 38.9788C123.06 41.4072 121.304 46.4996 123.521 48.3211C125.589 50.0192 129.294 46.0556 130.363 44.7823C131.431 43.5081 132.358 42.5877 132.787 41.881C133.214 41.1725 133.642 41.2434 133.855 41.9519C134.068 42.6595 135.281 45.4198 136.849 45.3489C138.418 45.2779 139.7 44.9241 142.053 40.8187C142.48 39.9701 143.264 39.8641 143.407 40.5717C143.549 41.2793 143.692 43.1552 145.189 43.1552C147.754 43.1552 150.661 36.9558 151.39 35.5109C152.031 34.2367 153.064 34.5905 153.421 35.5459C153.931 36.9138 154.382 41.3144 157.162 41.3144C159.942 41.3144 161.83 38.3771 162.4 37.4567C163.043 36.5381 162.709 35.3637 161.724 36.2193ZM131.503 40.4658C130.862 41.5272 129.436 43.8627 127.939 43.3671C127.155 42.9423 128.129 40.8905 128.652 39.8992C129.437 38.413 131.734 36.0118 132.787 36.6082C133.784 37.1748 132.144 39.4035 131.503 40.4658ZM117.733 36.7562C117.733 36.7562 111.675 32.3679 109.964 30.3869C108.815 29.0558 109.608 28.0514 110.32 27.4856C114.596 24.6544 121.296 20.2661 123.934 13.4721C126.475 6.92341 122.508 1.22851 119.657 0.308109C115.75 -0.952072 107.468 1.5823 103.334 9.22571C100.657 14.1762 99.4152 15.8077 99.058 29.2546C98.9892 31.8013 98.9151 34.7043 98.9151 37.8894C98.9151 41.0744 98.5588 49.7083 98.2017 51.3354C96.8479 55.1571 100.911 52.8924 102.763 51.4072C104.617 49.9202 104.473 47.6914 104.473 46.736C104.473 45.5319 104.545 24.3006 105.187 19.5585C105.586 16.609 106.043 11.1366 109.177 6.39446C112.314 1.65236 115.521 3.56409 116.378 4.34174C117.232 5.12027 118.445 7.10206 117.802 11.1366C116.806 17.3972 109.534 24.2297 107.68 26.3524C105.828 28.4752 106.256 30.316 107.325 31.8021C108.085 32.8591 109.962 34.9162 111.887 36.8271C113.811 38.7379 113.597 40.4369 113.313 41.7111C112.314 45.5319 101.908 55.8656 101.908 55.8656C99.6974 58.2011 101.978 62.0228 102.762 63.2962C103.548 64.5704 104.545 64.1465 105.186 63.0842C107.752 58.343 118.799 46.877 118.799 46.877C122.011 42.8425 120.655 38.9499 117.733 36.7562Z" fill="#043E6C"/>
</svg>
