<svg width="146" height="56" viewBox="0 0 146 56" fill="none" xmlns="http://www.w3.org/2000/svg">
<path fill-rule="evenodd" clip-rule="evenodd" d="M71.6833 0.000166925C80.1329 -0.0094998 86.7717 0.399063 93.9629 1.65005C101.814 3.01591 109.136 4.85828 115.032 8.31388C115.468 8.56918 115.801 8.7358 116.367 9.10712C118.665 10.6166 121.526 13.0344 122.076 16.2787C122.521 18.9018 121.322 21.0384 120.028 22.5615C118.685 24.1424 117.038 25.3456 115.28 26.3694C108.11 30.5474 98.6567 32.7714 88.8429 33.9217C84.2823 34.4563 79.5 34.842 73.8866 34.842C68.4292 34.842 63.6102 34.6167 58.9611 34.1439C49.5062 33.1825 39.6033 31.1556 32.1513 27.2894C30.2957 26.327 28.5593 25.2762 27.0002 23.8626C25.52 22.5206 24.109 20.8562 23.7112 18.5635C23.0425 14.7116 25.6971 11.9099 27.9002 10.1861C30.2612 8.33833 33.2995 6.79477 36.2162 5.68025C42.2786 3.36307 49.6095 1.82349 56.8822 0.920216C61.7292 0.318315 66.0301 0.00642178 71.6833 0.000166925ZM71.9008 3.45888C65.3417 3.45888 59.1125 4.67661 53.6552 6.7274C50.9826 7.7316 48.6074 8.96495 46.518 10.7573C44.6948 12.3216 42.5388 14.8298 43.0427 18.2777C43.4774 21.2517 45.7897 23.373 47.7593 24.7829C49.958 26.3566 52.5955 27.5465 55.2688 28.4318C61.0442 30.3451 67.5142 31.169 74.1969 31.0974C80.5457 31.0292 87.2235 29.9034 92.4733 27.7975C95.0621 26.7589 97.5458 25.4875 99.5791 23.7358C101.452 22.1228 103.439 19.5177 102.931 16.2787C102.475 13.3776 100.311 11.2563 98.214 9.77354C95.9074 8.14272 93.4621 7.06943 90.7048 6.12436C86.4825 4.67745 81.685 3.81911 77.0826 3.58596C75.6389 3.51263 73.7397 3.37244 71.9626 3.45888C71.9421 3.46002 71.9213 3.45888 71.9008 3.45888Z" fill="#043E6C"/>
<path fill-rule="evenodd" clip-rule="evenodd" d="M6.6138 41.3787C9.41433 41.3726 11.906 41.3464 14.1849 41.8233C14.949 41.9828 15.8075 42.285 16.0778 42.8699C16.3313 43.419 16.2329 44.3294 16.2329 45.6625C16.2329 48.1369 16.2329 50.4064 16.2329 52.9926C16.2329 53.4616 16.291 54.0535 16.1709 54.3892C15.7975 55.4294 13.7668 55.6754 12.7264 55.7852C9.92505 56.0813 6.59239 56.0618 3.72791 55.7852C2.60468 55.6766 0.595398 55.43 0.159455 54.4521C-0.0999427 53.8706 0.0351771 52.4976 0.0351771 51.6283C0.0351771 49.5158 0.0351771 47.9701 0.0351771 45.7898C0.0351771 44.7597 -0.11579 43.3995 0.283452 42.775C0.687978 42.1424 2.01582 41.7909 3.10735 41.6326C4.32509 41.4558 5.25397 41.3816 6.6138 41.3787ZM6.36551 43.1875C6.2532 43.4213 6.30325 44.0877 6.30325 44.4887C6.30325 46.9377 6.30325 48.9958 6.30325 51.4061C6.30325 52.2254 6.14533 53.6468 6.39637 54.1033C6.65633 54.5755 7.37473 54.57 8.10316 54.5793C8.67979 54.5866 9.55919 54.6221 9.84081 54.135C10.0958 53.6936 9.93396 52.3777 9.93396 51.5014C9.93396 49.2567 9.93396 48.1425 9.93396 45.9799C9.93396 45.3859 10.0794 43.7078 9.90282 43.251C9.67762 42.6679 8.18547 42.7066 7.66863 42.7433C7.29772 42.7695 6.55819 42.7864 6.36551 43.1875Z" fill="#043E6C"/>
<path fill-rule="evenodd" clip-rule="evenodd" d="M30.848 41.5374C33.3624 41.5368 36.143 41.5377 38.7606 41.5374C40.5772 46.2588 42.4007 50.9732 44.1909 55.7217C41.8119 55.7217 39.433 55.7217 37.0538 55.7217C36.6615 54.5574 36.3033 53.3588 35.9059 52.1992C34.569 52.1485 33.0222 52.1451 31.6858 52.1992C31.3038 53.3213 31.0119 54.5353 30.6931 55.7217C29.0689 55.7217 27.4451 55.7217 25.8211 55.7217C27.0297 52.1945 28.3075 48.6624 29.5446 45.1233C29.96 43.9352 30.4386 42.5863 30.848 41.5374ZM31.9961 50.549C33.0831 50.4969 34.3845 50.4969 35.4714 50.549C34.8531 48.6854 34.2575 46.7983 33.5785 44.9964C33.0806 46.8775 32.4972 48.6715 31.9961 50.549Z" fill="#043E6C"/>
<path fill-rule="evenodd" clip-rule="evenodd" d="M61.4745 47.2492C62.9513 45.6887 64.4952 43.9337 66.036 42.2038C66.2224 41.9942 66.5541 41.5834 66.7187 41.5374C67.0885 41.4337 67.7473 41.5374 68.1772 41.5374C69.5947 41.5374 71.0962 41.5636 72.49 41.5056C72.5501 41.6765 72.3206 41.7659 72.2418 41.8547C70.633 43.6665 68.9037 45.5895 67.2459 47.3762C68.8883 50.1499 70.6449 52.976 72.2111 55.7217C69.8216 55.7217 67.4321 55.7217 65.0429 55.7217C63.7769 53.7373 62.7044 51.5549 61.4745 49.5341C61.4745 51.5965 61.4745 53.659 61.4745 55.7217C59.2197 55.7217 56.9649 55.7217 54.7101 55.7217C54.6891 51.1412 54.7514 46.2026 54.6788 41.5691C56.8309 41.4954 59.2812 41.558 61.3812 41.5374C61.5514 41.519 61.4745 41.9208 61.4745 42.1403C61.4745 43.7532 61.4745 45.6171 61.4745 47.2492Z" fill="#043E6C"/>
<path fill-rule="evenodd" clip-rule="evenodd" d="M82.8542 41.5374C85.0984 41.5374 87.3433 41.5374 89.5878 41.5374C89.5875 45.6098 89.5878 49.8512 89.5878 53.8177C91.8218 53.8386 94.1387 53.7754 96.3212 53.8494C96.3212 54.4736 96.3212 55.0975 96.3212 55.7217C91.8113 55.7217 87.3017 55.7217 82.7921 55.7217C82.8638 51.3718 82.8032 46.2236 82.8231 41.6008C82.7608 41.5726 82.8368 41.4617 82.8542 41.5374Z" fill="#043E6C"/>
<path fill-rule="evenodd" clip-rule="evenodd" d="M106.406 41.5374C110.823 41.5374 115.239 41.5374 119.656 41.5374C119.656 42.1403 119.656 42.7433 119.656 43.3462C117.504 43.3462 115.353 43.3462 113.201 43.3462C113.129 44.732 113.191 46.2547 113.17 47.6935C114.825 47.7145 116.563 47.6513 118.166 47.7253C118.178 48.3372 118.144 48.9227 118.197 49.3754C116.532 49.3754 114.867 49.3754 113.201 49.3754C113.201 50.8771 113.201 52.3791 113.201 53.8814C115.28 53.9551 117.494 53.8919 119.625 53.9132C119.625 54.5158 119.625 55.1188 119.625 55.7217C115.208 55.7217 110.791 55.7217 106.375 55.7217C106.375 51.0149 106.375 46.3077 106.375 41.6008C106.362 41.54 106.396 41.4861 106.406 41.5374Z" fill="#043E6C"/>
<path fill-rule="evenodd" clip-rule="evenodd" d="M145.969 41.5056C145.995 41.4998 145.998 41.5182 146 41.5374C144.171 44.5006 142.114 47.5069 140.197 50.4858C140.218 52.1902 140.157 54.144 140.229 55.69C138.015 55.7639 135.667 55.7005 133.402 55.7217C133.4 54.4806 133.402 53.1699 133.402 51.8187C133.402 51.3861 133.48 50.894 133.402 50.5176C133.333 50.1874 132.899 49.737 132.657 49.3754C130.916 46.7665 129.183 44.1064 127.537 41.5374C129.927 41.5374 132.316 41.5374 134.705 41.5374C135.762 43.2382 136.722 45.0386 137.715 46.805C138.756 45.077 139.722 43.2723 140.756 41.5374C142.483 41.5164 144.293 41.5796 145.969 41.5056Z" fill="#043E6C"/>
</svg>
