<svg width="158" height="41" viewBox="0 0 158 41" fill="none" xmlns="http://www.w3.org/2000/svg">
<path d="M109.365 40.486V0.485724H115.096V40.486H109.365Z" fill="#043E6C"/>
<path d="M58.8041 8.43721V12.1791H64.3058V7.50174C63.7282 1.45717 59.4552 0 56.2917 0C53.1282 0 48.1125 1.57411 48.1125 8.39224C48.1125 15.2104 48.1583 16.4876 54.4028 20.7332C58.309 23.4317 59.336 25.0868 59.4643 27.3895C59.4643 27.3895 59.556 30.7805 59.4643 32.4536C59.1617 37.8505 53.6784 36.5283 53.6692 32.8584C53.6692 30.8435 53.6692 26.9847 53.6692 26.9847H48.0666V32.8134C48.0666 37.8955 51.5235 40.9088 56.5393 40.9987C59.4185 41.0437 65.0119 39.9104 65.1311 32.9033V25.8963C64.856 20.7332 61.6375 18.7993 59.1709 16.9824C56.7043 15.1654 53.6692 13.9151 53.495 11.1357V8.43721C53.495 3.43605 58.7858 3.517 58.795 8.43721H58.8041Z" fill="#043E6C"/>
<path d="M6.34531 0.512709L11.9846 22.6671L17.6146 0.512709H23.9691V40.504H18.229V15.849L13.9102 40.504H10.0039L5.74012 15.849V40.504H0V0.512709H6.34531Z" fill="#043E6C"/>
<path d="M94.2168 22.7301H99.9936V40.486H105.734V0.485724H99.9936V17.7379H94.2168V0.485724H88.4859V40.486H94.2168V22.7301Z" fill="#043E6C"/>
<path d="M131.234 21.201V0.49472H136.965V40.486H132.142L124.66 16.3347V40.486H118.91V0.485724H124.825L131.234 21.201Z" fill="#043E6C"/>
<path d="M140.404 10.4431C140.404 6.65622 142.238 0.0089951 149.216 0.0089951C156.194 0.0089951 158 6.43135 158 10.4431V30.5557C158 34.5494 156.166 40.9987 149.216 40.9987C142.265 40.9987 140.404 34.5494 140.404 30.5557V10.4431ZM146.144 30.5557C146.144 34.2886 147.803 35.5388 149.216 35.5388C150.628 35.5388 152.26 34.2975 152.26 30.5557V10.4431C152.26 6.68321 150.6 5.4599 149.188 5.4599C147.776 5.4599 146.116 6.68321 146.116 10.4431V30.5557H146.144Z" fill="#043E6C"/>
<path d="M27.2885 10.4431C27.2885 6.65622 29.1224 0.0089951 36.1004 0.0089951C43.0784 0.0089951 44.8848 6.43135 44.8848 10.4431V30.5557C44.8848 34.5494 43.0509 40.9987 36.1004 40.9987C29.1499 40.9987 27.2885 34.5494 27.2885 30.5557V10.4431ZM33.0561 30.5557C33.0561 34.2886 34.6883 35.5658 36.1004 35.5658C37.5125 35.5658 39.1722 34.3335 39.1722 30.5827V10.4431C39.1722 6.68321 37.5125 5.4599 36.1004 5.4599C34.6883 5.4599 33.0561 6.68321 33.0561 10.4431V30.5557Z" fill="#043E6C"/>
<path d="M85.3224 26.9217V30.5197C85.3224 35.3499 83.7452 40.9628 76.8406 40.9628C69.9359 40.9628 68.0287 34.5134 68.0287 30.5197V10.4431C68.0287 6.65622 69.8626 0.0089951 76.8406 0.0089951C83.8186 0.0089951 84.9739 5.55885 84.9739 10.4431V13.6543H79.7657V10.4431C79.7657 7.06999 78.6837 5.4599 76.8589 5.4599C75.4927 5.4599 73.7871 6.5213 73.7871 10.4431V30.5557C73.7871 33.6319 74.9517 35.5388 76.8589 35.5388C78.4728 35.5388 79.7657 34.3425 79.7657 30.5557V26.9577H85.2674L85.3224 26.9217Z" fill="#043E6C"/>
</svg>
