<svg width="212" height="92" viewBox="0 0 212 92" fill="none" xmlns="http://www.w3.org/2000/svg">
<path d="M40.5778 1.20086C41.5481 1.22641 42.6462 0.830381 43.3868 0.472678C43.8975 0.229951 44.2423 0.0255498 44.1912 0.0255498C43.5272 0.0127747 42.4292 0 42.0206 0C40.2585 0 39.3392 1.00923 39.3392 1.07311C39.3137 1.12421 39.5691 1.16253 39.9521 1.17531C40.1309 1.20086 40.3352 1.20086 40.5778 1.20086Z" fill="#043E6C"/>
<path d="M21.6423 16.4671C21.9871 17.0548 22.3063 17.8724 22.7276 18.3706C23.3405 19.1115 24.5918 20.3763 26.3538 20.0697C27.1199 19.9419 27.1327 19.712 27.1327 19.712C28.0265 20.5935 29.431 20.5551 29.431 20.5551C29.265 19.993 28.6394 18.9199 28.55 18.2428C28.4606 17.5019 28.6649 16.8248 28.6649 16.8248C28.9203 15.9944 29.4055 14.9596 29.9545 14.4359C30.4269 13.9504 31.6655 13.4266 32.6359 14.0909C33.4275 14.653 34.3468 16.4543 33.5807 19.0349C33.5296 19.2137 32.6742 21.0534 31.7676 21.3216C31.7676 21.3216 31.6782 21.36 31.5122 21.36C30.8994 21.36 29.7374 20.7084 29.7374 20.7084C29.7374 20.7084 29.6991 20.8745 29.8651 21.5516C29.9673 21.9221 30.1205 22.3309 30.2226 22.663C30.2226 22.663 29.98 23.059 29.8651 23.289C29.6608 23.5445 29.431 24.4388 29.9162 24.7965C29.9162 24.7965 31.9719 26.1762 33.9382 26.2911C35.3044 26.3678 35.8152 25.4608 35.8152 25.4608C36.8111 24.0938 37.5772 22.9185 38.6242 21.9604C41.5226 19.3159 45.5702 18.6133 45.5702 18.6133C45.8383 18.5878 50.2689 17.3358 57.8405 23.3656C55.6699 23.5189 53.1035 24.0555 51.1499 24.3876C45.5702 25.3969 41.9823 30.6219 40.9608 32.7681C38.2411 38.3508 43.7826 40.2671 43.7826 40.2671C43.8209 40.216 49.0687 39.8072 51.5968 34.2756C51.5968 34.2756 52.5289 31.7844 54.9677 32.5893C56.602 33.113 70.8004 38.0698 73.9925 38.9002C73.9925 38.9002 83.5049 41.3658 87.1055 37.0094C92.813 38.8874 98.1757 39.7816 112.246 37.9804C114.711 37.6482 116.626 37.7376 116.626 37.7376C119.92 37.9804 122.921 40.1904 123.814 41.6468C127.53 47.5361 132.216 59.2637 148.534 57.8584L155.914 57.1941C160.409 56.9258 164.06 56.7342 167.789 58.7016C169.397 59.5447 170.304 59.8513 173.036 62.4574C176.79 66.0345 180.251 69.8798 184.86 67.7974C186.494 67.0437 188.32 64.1437 188.32 64.1437C188.129 62.8279 187.567 61.5248 186.086 60.4517C190.248 61.4226 199.671 62.0614 203.323 55.7122C204.268 54.2303 204.357 52.9144 204 52.1096C202.991 49.8995 200.233 50.6149 200.233 50.6149C198.931 50.896 197.449 52.3907 195.241 53.055C190.503 54.4347 186.673 52.825 186.673 52.825C179.357 49.644 155.812 36.2429 143.848 30.3664C143.848 30.3664 129.956 23.9405 109.782 15.9689C109.782 15.9689 70.1237 -0.881482 43.6677 0.485453C43.6677 0.485453 29.5587 0.868706 25.1281 7.06463C25.1281 7.06463 24.4003 7.92056 24.7961 8.85314C24.7961 8.85314 24.8982 9.10864 24.7067 9.28749C24.7067 9.28749 22.3446 11.4082 21.1188 13.3244C20.6975 13.976 20.3016 15.1002 21.1061 15.9433C21.0933 15.8922 21.4636 16.2116 21.6423 16.4671ZM22.9575 14.3592C24.3747 11.1527 27.0306 10.7055 27.3881 10.6417C27.7711 10.6033 28.9841 10.4245 28.9841 10.4245C32.3805 9.8496 34.0021 6.3109 34.0021 6.3109C31.7165 6.27257 30.5929 6.43865 30.5929 6.43865C28.3457 6.83468 27.5668 9.49189 27.5668 9.46634C25.6771 9.92625 25.7026 8.26549 26.0474 7.78003C26.3411 7.32013 27.4647 5.36554 34.8065 3.66645C34.8065 3.66645 38.4199 2.58057 46.1575 2.9255L45.8255 3.50038C45.1488 4.80344 42.4292 7.46066 37.9347 6.47697C37.9347 6.47697 37.9858 8.46989 42.8505 9.15974C42.8505 9.15974 47.2684 9.9518 54.7123 15.9178C54.7123 15.9178 51.1499 8.85314 45.0977 7.0263C45.0977 7.0263 44.3444 6.88578 44.7019 6.40032C44.7019 6.40032 48.443 2.95105 53.2567 2.81052C53.2567 2.81052 69.5491 1.23919 78.5891 13.6566C78.5891 13.6566 75.8694 8.38046 73.8009 6.09372C73.8009 6.09372 83.2495 8.76371 97.8182 13.8099C97.8182 13.8099 107.739 17.2975 114.072 19.8014C122.653 23.1612 144.091 31.4906 157.791 38.9385C160.217 40.2543 184.962 53.1061 184.962 53.1061C191.806 56.1849 196.556 54.3325 196.556 54.3325C198.101 53.732 200.871 51.5731 202.11 52.7995C202.736 53.4382 202.825 54.2686 202.531 55.099C202.161 56.3126 200.399 57.9606 198.267 58.9315C195.981 59.9152 191.308 60.1835 188.601 59.7491C188.588 59.7491 183.328 59.2126 178.744 54.4219C177.275 52.9144 175.488 51.2026 173.854 49.4907C173.126 48.737 171.338 46.9612 168.363 46.5652C165.286 46.1436 157.714 45.9392 154.893 45.0067C152.99 44.3679 150.692 43.0904 147.666 38.5936C146.197 36.4346 145.15 35.8469 143.159 34.5822C143.159 34.5822 144.691 35.8086 145.559 37.316C146.797 39.5517 147.461 41.1741 148.138 42.3367C148.802 43.5375 149.581 44.5723 150.743 45.5177C152.173 46.693 153.079 46.8846 154.637 47.1529C156.144 47.3956 161.187 47.3573 165.529 47.2934C169.793 47.2167 171.696 48.5965 173.1 49.7845C174.39 50.8704 176.612 54.0003 177.991 55.3545C179.612 56.9641 180.8 58.6377 184.043 60.2601C185.154 60.8222 186.979 62.1892 186.89 63.5433C185.434 64.9741 183.647 65.3701 179.344 64.2204C179.625 64.527 181.898 66.8776 185.754 65.7662C184.579 66.7371 183.43 67.1331 182.242 67.0692C178.208 66.8521 174.249 61.8825 172.04 60.0685C170.342 58.676 170.151 58.3311 167.291 56.3382C162.937 53.3488 153.182 54.1919 153.182 54.1919L145.993 54.5752C132.037 55.61 126.177 43.282 124.619 40.7014C124.095 39.82 123.61 39.1046 123.151 38.5041C122.436 37.5588 118.605 32.6404 114.762 31.0052C114.762 31.0052 118.554 34.2756 118.35 36.4218C118.35 36.4218 116.766 35.7192 112.489 36.3196C94.1281 38.9129 87.8716 34.3395 87.8716 34.3395C88.7144 30.6347 86.1352 26.8916 86.1352 26.8916C87.5652 27.3259 96.5924 30.3919 105.186 28.6418C105.186 28.6418 91.2169 28.7312 81.4236 20.9512C81.4236 20.9512 87.5141 28.5523 86.0585 33.5474C86.0585 33.5474 85.0626 38.8491 74.4266 36.7284C73.303 36.4984 71.9623 36.128 56.0657 31.7206C52.3246 30.6219 51.035 32.3976 50.3583 33.458C50.32 35.0165 48.4686 36.8561 47.5365 37.431C42.6207 36.5495 44.5742 32.0016 44.5742 32.0016C41.4843 36.409 44.6892 38.3636 45.7362 38.4914C45.136 38.8107 44.5615 39.0151 44.0635 39.194C44.0635 39.194 40.0287 36.805 42.2887 32.8959C45.4297 27.4281 48.6218 25.6779 54.4825 25.1542C57.0361 24.9114 59.1557 24.7326 60.79 24.9498C65.0419 25.5246 67.7232 27.9264 74.0563 28.5523C60.5857 24.5665 60.5474 16.7865 60.5091 16.6332C60.5091 16.6076 60.4963 16.6076 60.4963 16.6076C59.7558 19.1754 60.1516 21.3216 60.8283 23.174C60.6368 23.0974 57.6745 21.1811 56.5509 20.4785C51.7117 17.5274 47.8812 17.0292 47.8812 17.0292C46.298 16.812 45.5191 14.883 45.5191 14.883C45.4936 14.7808 45.4042 14.6786 45.3659 14.6019C43.1442 10.7694 40.897 10.7311 40.897 10.7311C42.1738 12.3918 42.1993 14.8063 42.1993 14.8063C42.8505 19.5331 37.475 20.9895 37.475 20.9895C34.1808 25.1542 34.3468 25.2436 33.6318 25.3586C32.904 25.4608 31.2824 24.6432 31.2824 24.6432C31.027 24.2599 31.3973 23.8511 31.3973 23.8511C32.023 23.3656 32.5209 22.8802 32.5209 22.8802C36.0067 19.3287 36.4153 17.5913 35.9812 15.3046C35.1129 10.68 31.7931 11.2293 31.7931 11.2293C30.2354 11.306 29.5331 12.6857 29.5331 12.6857C28.9969 13.5416 27.8222 16.1605 27.8222 16.1605C27.1072 17.7191 26.3538 18.0512 25.9836 18.1151C25.8176 18.1534 25.5239 18.1279 25.4217 18.1279C24.2854 18.0895 23.4554 17.0675 23.4554 17.0675C23.4044 17.0164 23.3405 16.9653 23.315 16.9142C22.2424 15.8028 22.9575 14.3592 22.9575 14.3592ZM28.3074 9.42802C28.3074 9.42802 28.4351 8.99367 28.4734 8.89147C28.5372 8.80204 28.933 7.69061 29.9417 7.58841C29.9417 7.58841 30.5163 7.55008 31.4229 7.55008C31.4229 7.55008 30.976 8.95534 29.2395 9.26194C29.2395 9.24917 28.5755 9.42802 28.3074 9.42802Z" fill="#043E6C"/>
<path d="M25.0259 87.816C26.2772 86.5257 26.9029 84.916 26.9029 82.2971V74.0955H20.6209V81.7734C20.6209 83.9962 20.1229 85.5165 19.0248 86.6024C17.582 88.0332 15.1815 88.6208 11.6192 88.6208H0V90.8692H12.6023C18.5907 90.882 22.7915 90.0772 25.0259 87.816Z" fill="#043E6C"/>
<path d="M164.699 87.305L167.789 90.882H174.824L160.204 74.0955H154.024L139.405 90.882H143.044L146.134 87.305H164.699ZM155.391 76.5356L162.822 85.1204H147.985L155.391 76.5356Z" fill="#043E6C"/>
<path d="M58.1342 90.882H65.1696L50.5371 74.0955H44.3444L29.7502 90.882H33.3892L36.4536 87.3178H55.057L58.1342 90.882ZM38.3433 85.146L45.7362 76.5484L53.1673 85.146H38.3433Z" fill="#043E6C"/>
<path d="M207.971 83.6896C209.567 82.8337 210.307 81.2113 210.307 79.525C210.307 77.2765 209.311 75.8457 207.485 75.0537C205.838 74.3383 203.834 74.0955 199.824 74.0955H180.391V90.882H186.647V85.0566H194.87L204.281 90.882H211.916L202.072 84.9288C204.408 84.8777 206.4 84.5072 207.971 83.6896ZM186.647 82.9487V76.1907H199.007C201.357 76.1907 202.391 76.3951 203.119 76.9444C203.808 77.4682 204.038 78.2219 204.038 79.4483V79.7677C204.038 80.8408 203.795 81.735 202.978 82.2971C202.186 82.8337 201.101 82.9487 199.097 82.9487H186.647Z" fill="#043E6C"/>
<path d="M105.607 74.0955V82.4632C105.607 84.6222 105.837 86.3341 106.922 87.7521C108.71 90.1027 111.991 91.4313 121.044 91.4313H121.159C130.262 91.4313 133.531 90.1027 135.293 87.7521C136.391 86.3469 136.634 84.635 136.634 82.4504V74.0955H130.377V82.2205C130.377 84.3284 130.097 85.6698 129.279 86.8068C127.939 88.7103 125.794 89.4001 121.376 89.4001H120.839C116.639 89.4001 114.302 88.7103 112.936 86.8068C112.131 85.6698 111.863 84.3923 111.863 82.2205V74.0955H105.607Z" fill="#043E6C"/>
<path d="M82.394 76.3184H98.0352V74.0955H80.4277C76.1631 74.0955 73.6094 74.581 71.3367 75.8457C69.1916 77.0338 67.5062 79.2567 67.5062 82.4504C67.5062 85.8486 69.0511 88.327 72.4347 89.6684C74.4521 90.486 77.1462 90.882 80.5299 90.882H98.6864V83.1659H92.4299V88.6336H82.4323C79.1764 88.6336 77.2995 88.1609 75.9077 87.1006C74.5798 86.1041 73.8903 84.5583 73.8903 82.4632C73.8903 80.4575 74.5543 78.9756 75.78 77.9536C77.2101 76.8422 79.036 76.3184 82.394 76.3184Z" fill="#043E6C"/>
</svg>
