<svg width="352" height="67" viewBox="0 0 352 67" fill="none" xmlns="http://www.w3.org/2000/svg">
<path d="M170.837 5.2511C170.397 7.09892 170.029 8.82688 170.443 10.5948C170.599 11.264 170.089 11.4171 169.685 11.6902C163.938 15.5955 164.106 20.6296 170.331 23.7659C177.128 27.1885 184.113 27.0254 191.036 23.8991C191.334 23.7626 191.685 23.6394 191.887 23.403C194.705 20.0603 199.234 19.9537 202.591 17.6431C203.389 17.0938 203.525 17.8529 203.746 18.269C205.869 22.2677 205.581 26.173 203.051 29.8587C200.151 34.0837 195.946 36.6174 191.268 38.2987C177.316 43.3094 163.441 43.133 149.757 37.23C147.013 36.0447 144.546 34.36 142.421 32.2192C136.978 26.7357 137.077 19.8805 142.679 14.5501C147.271 10.1786 152.959 8.03781 158.965 6.62614C162.825 5.72055 166.755 5.26775 170.837 5.2511Z" fill="#043E6C"/>
<path d="M343.796 30.2882C342.074 33.2114 339.697 34.8028 336.969 35.7817C330.397 38.1389 323.762 38.1855 317.276 35.5153C309.393 32.2725 306.639 22.221 311.655 15.3525C313.866 12.3227 317.054 10.8711 320.6 10.1786C326.308 9.06326 331.993 9.03996 337.502 11.1841C343.137 13.3748 346.04 18.2358 345.573 24.2719C345.481 25.4639 344.789 25.2341 344.11 25.2341C334.515 25.2375 324.918 25.2341 315.323 25.2341H313.442C313.952 28.1374 315.505 30.1383 318.034 31.2171C324.096 33.8007 330.337 33.9239 336.336 31.3503C338.786 30.2982 341.051 30.3747 343.792 30.2882H343.796ZM341.226 20.9559C340.521 17.9394 338.538 16.2181 335.956 15.3558C330.569 13.5646 325.07 13.1984 319.59 15.0062C317.223 15.7886 315.306 17.217 314.114 19.5142C313.528 20.6429 313.74 20.9892 315.058 20.9792C322.434 20.9292 329.814 20.9559 337.191 20.9559H341.226Z" fill="#043E6C"/>
<path d="M62.0153 30.1983C60.5221 32.7419 58.6217 34.2801 56.3075 35.2623C49.0933 38.3187 41.8129 38.332 34.6749 35.1524C29.5961 32.8884 27.4011 28.5869 27.4507 23.1133C27.5004 17.6831 29.7981 13.4947 34.9066 11.4538C42.0447 8.60048 49.3449 8.57384 56.4565 11.5503C62.4126 14.0407 63.7336 18.9316 63.7865 23.8092C63.7998 24.9045 63.4091 25.2741 62.247 25.2674C52.5398 25.2142 42.8326 25.2741 33.1254 25.2009C31.5131 25.1875 31.566 25.7336 32.0395 26.9022C33.0261 29.3326 34.8305 30.9141 37.2275 31.6799C43.6371 33.7308 49.9607 33.8307 56.1287 30.6311C57.8503 29.7388 59.8169 30.4946 62.012 30.2016L62.0153 30.1983ZM45.6269 20.9559C49.7621 20.9559 53.8939 20.9093 58.0291 20.9825C59.4428 21.0058 59.4461 20.553 58.9197 19.4809C57.847 17.3002 56.0757 15.9751 53.8575 15.2593C48.8781 13.6478 43.806 13.3449 38.7273 14.6866C35.9363 15.4257 33.5757 16.9007 32.2348 19.6507C31.7812 20.5796 31.8508 20.9958 33.0625 20.9792C37.2506 20.9192 41.4388 20.9559 45.6302 20.9559H45.6269Z" fill="#043E6C"/>
<path d="M227.491 9.63925C231.573 9.63925 235.656 9.67587 239.734 9.61261C240.771 9.59597 241.022 9.91559 241.026 10.9211C241.029 13.9675 241.075 13.9675 238.039 13.9675C230.815 13.9675 223.588 13.9675 216.364 13.9675C213.771 13.9675 212.093 15.3825 212.096 17.5399C212.096 19.724 213.771 21.2222 216.301 21.2256C222.422 21.2322 228.544 21.0924 234.662 21.2256C240.946 21.3654 244.519 28.1307 241.221 33.4911C239.797 35.8083 237.639 37.16 234.927 37.1834C226.71 37.2566 218.493 37.1967 210.275 37.23C209.338 37.2333 209.09 36.9703 209.083 36.0314C209.06 32.8751 209.02 32.8751 212.113 32.8751C219.393 32.8751 226.673 32.8851 233.954 32.8685C236.106 32.8651 237.539 31.8297 237.93 30.0784C238.503 27.5281 236.957 25.5671 234.318 25.5604C228.031 25.5438 221.744 25.5704 215.457 25.5504C211.772 25.5371 208.653 23.0667 207.845 19.6008C206.988 15.9218 208.554 12.3227 211.772 10.5515C213.013 9.86898 214.341 9.61927 215.745 9.6226C219.661 9.63592 223.578 9.62593 227.491 9.62593V9.63925Z" fill="#043E6C"/>
<path d="M188.821 17.4167C184.441 17.2136 180.683 16.4712 177.386 14.2005C172.827 11.0676 172.827 6.35646 177.366 3.2235C183.537 -1.0348 194.781 -1.08141 200.969 3.12695C205.749 6.37644 205.71 11.2274 200.843 14.3703C197.032 16.8307 192.761 17.44 188.818 17.4134L188.821 17.4167Z" fill="#043E6C"/>
<path d="M67.4284 23.4096C67.4284 19.2512 67.4582 15.0928 67.4085 10.9377C67.3953 9.94555 67.6303 9.60928 68.6832 9.61594C75.5199 9.66588 82.3534 9.59264 89.1901 9.6559C94.6728 9.70584 99.6522 14.2638 99.8806 19.6907C100.112 25.2242 99.9535 30.7743 99.9998 36.3177C100.006 37.0768 99.725 37.2033 99.043 37.24C95.6792 37.4131 95.6792 37.4364 95.6792 34.0737C95.6792 29.862 95.6958 25.647 95.6759 21.4353C95.6528 16.8307 92.8022 13.9775 88.2598 13.9741C83.3532 13.9741 78.4466 14.0274 73.5401 13.9408C72.1462 13.9175 71.6728 14.1739 71.696 15.7187C71.7986 22.3143 71.6993 28.9131 71.7721 35.5087C71.7854 36.8504 71.5205 37.3265 70.0902 37.2599C67.435 37.1401 67.4317 37.23 67.4317 34.5565C67.4317 30.8409 67.4317 27.1286 67.4317 23.413L67.4284 23.4096Z" fill="#043E6C"/>
<path d="M297.815 9.63925C294.839 14.074 292.078 18.1925 289.31 22.3109C284.781 29.053 280.212 35.7717 275.749 42.557C274.928 43.8022 274.09 44.4381 272.594 44.235C271.73 44.1152 270.833 44.215 269.853 44.215C269.992 43.386 270.551 42.8433 270.952 42.2374C272.968 39.1976 274.971 36.1479 277.067 33.1681C277.653 32.3358 277.583 31.813 277.034 31.0206C272.455 24.3818 267.922 17.7097 263.377 11.0476C263.132 10.6913 262.91 10.3184 262.589 9.81571C264.108 9.4861 265.519 9.69918 266.909 9.6559C267.668 9.63259 267.843 10.3451 268.171 10.8179C271.892 16.2348 275.6 21.665 279.315 27.092C279.586 27.4881 279.878 27.8677 280.249 28.3771C283.096 24.1488 285.87 20.0303 288.641 15.9118C289.721 14.3071 290.86 12.7389 291.843 11.0742C292.518 9.93224 293.356 9.47611 294.657 9.6226C295.571 9.72581 296.504 9.64258 297.819 9.64258L297.815 9.63925Z" fill="#043E6C"/>
<path d="M20.1008 9.06659C21.2761 9.12985 22.7594 9.24305 24.2426 9.27634C25.2656 9.29965 25.653 9.66588 25.6397 10.7712C25.61 13.5813 25.6695 13.5879 22.9348 13.5779C18.8527 13.5646 14.7738 13.6445 10.8472 14.9363C5.77177 16.6043 3.51051 20.4864 4.58982 25.5971C5.14272 28.2273 6.77825 30.0118 9.11565 31.1838C11.8272 32.5422 14.7638 33.0216 17.7402 33.1914C19.879 33.3113 22.0277 33.5443 24.1698 33.2613C25.3451 33.1082 25.6563 33.5676 25.6364 34.7263C25.5901 37.5429 25.6497 37.5995 22.9017 37.6927C18.3693 37.8426 13.8699 37.5962 9.53612 36.058C3.21916 33.8173 -0.18432 29.1628 0.00770465 23.0201C0.212973 16.4345 3.77868 12.103 10.4731 10.2352C13.5256 9.38288 16.6411 9.12985 20.1008 9.06992V9.06659Z" fill="#043E6C"/>
<path d="M107.482 23.2831C107.482 20.7328 107.393 18.1792 107.515 15.6355C107.585 14.1939 107.075 13.7544 105.754 13.9641C105.429 14.0141 105.088 13.9408 104.764 13.9775C103.979 14.0673 103.628 13.7577 103.728 12.952C103.754 12.7323 103.731 12.5092 103.731 12.2861C103.721 9.72914 103.721 9.68253 106.3 9.66588C107.244 9.65923 107.542 9.38622 107.502 8.44067C107.433 6.7793 107.519 5.1146 107.469 3.45323C107.442 2.62088 107.664 2.31457 108.561 2.29127C111.677 2.2047 111.677 2.16475 111.677 5.24444C111.677 6.24326 111.763 7.24874 111.657 8.23424C111.525 9.46612 112.041 9.79573 113.147 9.64924C113.634 9.58598 114.137 9.63925 114.633 9.63925C116.084 9.63925 116.809 10.3662 116.809 11.82C116.809 13.2738 116.081 13.9908 114.627 13.9708C114.13 13.9708 113.627 14.0241 113.14 13.9608C111.991 13.8077 111.637 14.2471 111.65 15.4191C111.713 20.0736 111.657 24.7314 111.684 29.3892C111.697 31.863 112.733 32.9384 115.223 32.9051C116.421 32.8884 116.686 33.2846 116.666 34.4133C116.62 37.2366 116.676 37.2366 113.925 37.2166C110.098 37.19 107.492 34.5898 107.479 30.7676C107.469 28.2739 107.479 25.7768 107.479 23.2831H107.482Z" fill="#043E6C"/>
<path d="M250.21 23.2698C250.21 20.6662 250.127 18.056 250.243 15.4557C250.303 14.1439 249.846 13.7877 248.664 13.9608C248.233 14.0241 247.78 13.9408 247.343 13.9775C246.684 14.0341 246.449 13.7411 246.512 13.1118C246.538 12.8388 246.515 12.5591 246.515 12.2795C246.508 9.72248 246.508 9.66588 249.074 9.66921C250.057 9.66921 250.256 9.32296 250.226 8.43401C250.167 6.71937 250.23 4.99807 250.197 3.2801C250.183 2.59424 250.372 2.34454 251.114 2.2946C254.464 2.07153 254.451 2.04156 254.467 5.34766C254.474 6.7227 254.057 8.45731 254.722 9.36291C255.365 10.2319 257.189 9.60596 258.493 9.61594C259.321 9.6226 259.473 9.92891 259.503 10.6847C259.629 13.9708 259.649 14.094 256.451 13.9242C254.693 13.831 254.385 14.4236 254.428 16.0317C254.54 20.4631 254.461 24.8979 254.467 29.3326C254.474 31.8596 255.451 32.9584 257.911 32.9084C259.169 32.8818 259.609 33.2447 259.444 34.4865C259.357 35.1391 259.427 35.815 259.427 36.4809C259.427 36.8204 259.394 37.0735 258.97 37.2166C255.471 38.4219 250.723 35.7184 250.293 32.0794C250.048 30.0018 250.223 27.8744 250.21 25.7668C250.206 24.9345 250.21 24.1055 250.21 23.2731V23.2698Z" fill="#043E6C"/>
<path d="M122.268 28.0641C122.268 25.6803 122.252 23.2998 122.268 20.9159C122.314 14.5668 127.191 9.66921 133.485 9.63925C135.028 9.63259 136.571 9.67587 138.113 9.6226C138.915 9.59597 139.127 9.88562 139.17 10.6647C139.355 13.9708 139.382 13.9708 136.091 13.9708C135.319 13.9708 134.548 13.9708 133.776 13.9708C129.595 13.9874 126.615 16.9373 126.582 21.1856C126.542 26.0066 126.539 30.8275 126.595 35.6485C126.609 36.7938 126.456 37.3065 125.109 37.2566C122.268 37.1534 122.265 37.24 122.265 34.38C122.265 32.2758 122.265 30.1683 122.265 28.0641H122.268Z" fill="#043E6C"/>
<path d="M300.911 19.744C300.911 14.4769 300.954 9.20643 300.881 3.94265C300.861 2.64086 301.189 2.23467 302.517 2.28461C305.165 2.38116 305.165 2.30459 305.165 5.01805C305.165 15.2193 305.142 25.4239 305.195 35.6252C305.202 36.9103 304.904 37.3065 303.593 37.2533C300.914 37.1467 300.911 37.2266 300.911 34.5498V19.744Z" fill="#043E6C"/>
<path d="M262.831 61.5179C263.089 63.2492 264.238 64.015 265.565 64.4311C267.989 65.1869 270.482 65.2668 272.839 64.2547C273.985 63.7619 275.051 63.8352 276.454 63.7886C274.395 66.542 271.644 66.8916 268.84 66.9815C267.641 67.0181 266.429 66.815 265.264 66.4421C262.327 65.4999 260.735 63.3524 260.804 60.4126C260.874 57.4727 262.38 55.6149 265.449 54.7559C268.009 54.0401 270.581 54.11 273.104 54.8924C275.66 55.6881 277.001 57.4527 277.203 59.9398C277.295 61.0784 277.107 61.5978 275.746 61.5612C271.78 61.4547 267.807 61.5246 263.837 61.5246C263.526 61.5246 263.215 61.5246 262.831 61.5246V61.5179ZM268.998 59.4637C270.76 59.4637 272.518 59.4437 274.279 59.4703C275.166 59.4837 275.239 59.1141 274.789 58.4948C274.534 58.1419 274.223 57.809 273.879 57.5526C271.806 56.0111 266.505 55.9079 264.41 57.3762C264.012 57.6558 263.655 58.0254 263.357 58.4149C262.85 59.0741 262.883 59.4936 263.887 59.4737C265.592 59.4404 267.297 59.4637 269.002 59.4637H268.998Z" fill="#043E6C"/>
<path d="M198.476 61.5179C199.187 63.8585 200.873 64.5077 202.707 64.7774C204.898 65.1003 207.1 65.077 209.156 64.0416C210.053 63.5888 210.964 63.8485 212.103 63.8052C211.298 65.107 210.279 65.7729 209.103 66.2024C206.147 67.2811 203.167 67.2711 200.237 66.1391C197.741 65.1769 196.559 63.2425 196.585 60.4292C196.612 57.749 197.833 55.8912 200.376 55.0023C203.326 53.9702 206.325 53.9968 209.272 55.0589C211.656 55.9179 212.798 57.7257 212.98 60.2328C213.053 61.2382 212.722 61.5579 211.689 61.5446C207.352 61.4846 203.011 61.5213 198.479 61.5213L198.476 61.5179ZM198.654 59.4637C202.29 59.4637 205.802 59.4803 209.318 59.4437C209.802 59.4404 210.553 59.8266 210.742 59.1341C210.884 58.618 210.341 58.1486 209.924 57.779C207.802 55.8779 201.743 55.8446 199.644 57.7324C199.197 58.1353 198.807 58.6014 198.654 59.4637Z" fill="#043E6C"/>
<path d="M77.0694 66.6785C75.4173 66.6785 73.7619 66.7184 72.1131 66.6685C69.8651 66.6019 68.1568 64.9172 68.1468 62.8364C68.1369 60.7755 69.8717 59.1607 72.1926 59.1374C74.7816 59.1108 77.3707 59.1474 79.9597 59.1141C80.3967 59.1074 81.0589 59.4204 81.2244 58.7345C81.3568 58.1885 81.0754 57.6625 80.6682 57.2463C80.1219 56.687 79.4366 56.5738 78.6983 56.5771C76.5496 56.5871 74.4009 56.5937 72.2555 56.5738C71.5636 56.5671 70.7193 56.91 70.7524 55.5483C70.7822 54.3198 71.5106 54.5828 72.176 54.5828C74.434 54.5728 76.6919 54.5595 78.9499 54.5828C81.5224 54.6094 83.1413 56.0311 83.2771 58.6014C83.4062 60.9752 83.2837 63.3624 83.3367 65.7429C83.3565 66.6618 82.8566 66.6885 82.1911 66.6818C80.4828 66.6652 78.7777 66.6751 77.0694 66.6751V66.6785ZM76.2682 61.1317C75.1094 61.1317 73.9506 61.1284 72.7918 61.1317C71.1696 61.1384 70.0538 61.8575 70.1763 62.9396C70.3551 64.5177 71.5735 64.7674 72.8581 64.7841C74.8445 64.8074 76.831 64.7907 78.8142 64.7907C81.529 64.7907 81.4992 64.7907 81.3469 62.0872C81.3072 61.3781 81.1218 61.1017 80.4 61.1217C79.0227 61.1617 77.6421 61.1317 76.2649 61.1317H76.2682Z" fill="#043E6C"/>
<path d="M224.833 66.8083C222.939 66.6385 221.068 66.5586 219.3 65.8628C216.797 64.8773 215.467 62.9862 215.51 60.4359C215.553 57.9421 216.847 56.0411 219.383 55.2653C223.095 54.13 226.882 54.13 230.593 55.2753C233.11 56.051 234.341 57.8456 234.384 60.296C234.431 63.0494 233.302 64.7974 230.785 65.8162C228.865 66.5919 226.829 66.6785 224.836 66.8083H224.833ZM225.048 56.5371C223.27 56.4506 221.515 56.5838 219.847 57.243C218.39 57.819 217.499 58.891 217.46 60.5091C217.42 62.1139 218.175 63.3191 219.658 63.8851C223.187 65.2302 226.756 65.2135 230.292 63.8851C231.805 63.3191 232.494 62.0939 232.457 60.4991C232.421 58.881 231.547 57.8056 230.077 57.2363C228.461 56.6104 226.766 56.4406 225.045 56.5338L225.048 56.5371Z" fill="#043E6C"/>
<path d="M105.297 54.5428C107.197 54.423 109.058 54.5828 110.853 55.212C113.352 56.0877 114.72 57.9222 114.769 60.3959C114.816 62.893 113.587 64.8939 111.114 65.7662C107.254 67.1246 103.304 67.1379 99.4502 65.7529C96.8612 64.824 95.8382 63.0261 95.8945 60.2061C95.9408 57.8423 97.1658 56.1676 99.6058 55.262C101.443 54.5795 103.364 54.4196 105.297 54.5462V54.5428ZM105.022 56.4739C103.625 56.5038 101.92 56.5438 100.291 57.1731C98.7517 57.7657 97.8279 58.8378 97.7948 60.5258C97.765 62.2104 98.5927 63.429 100.155 63.9684C103.595 65.1536 107.078 65.1769 110.508 63.9284C112.058 63.3624 112.869 62.1205 112.803 60.4392C112.74 58.8344 111.846 57.7757 110.372 57.1997C108.75 56.5671 107.045 56.4905 105.022 56.4739Z" fill="#043E6C"/>
<path d="M184.368 54.5795C186.133 54.5795 187.898 54.5528 189.659 54.5861C192.063 54.6294 193.781 56.2608 193.768 58.4282C193.754 60.5923 192.016 62.1705 189.599 62.1805C186.679 62.1938 183.756 62.2171 180.836 62.1638C179.955 62.1472 179.674 62.4235 179.747 63.2825C179.813 64.0516 179.723 64.8373 179.77 65.6097C179.816 66.3522 179.651 66.7251 178.793 66.7018C178.015 66.6785 177.743 66.4488 177.753 65.643C177.79 62.317 177.8 58.9909 177.753 55.6682C177.74 54.7526 178.091 54.5462 178.916 54.5661C180.733 54.6128 182.554 54.5795 184.372 54.5795H184.368ZM185.173 56.5804C183.683 56.5804 182.193 56.6071 180.707 56.5671C179.992 56.5471 179.694 56.8035 179.75 57.526C179.79 58.0221 179.803 58.5281 179.75 59.0209C179.641 59.9498 179.965 60.2761 180.928 60.2561C183.739 60.1961 186.553 60.2328 189.364 60.2361C190.599 60.2361 191.679 59.8399 191.705 58.4649C191.735 56.9799 190.596 56.5838 189.311 56.5771C187.934 56.5704 186.553 56.5771 185.176 56.5771L185.173 56.5804Z" fill="#043E6C"/>
<path d="M152.062 60.5424C152.062 58.881 152.062 57.223 152.062 55.5616C152.062 55.0389 152.062 54.5595 152.807 54.5728C156.041 54.6327 159.316 54.2765 162.468 55.2986C165.888 56.4073 167.368 59.0508 166.503 62.3403C165.931 64.521 164.308 65.5765 162.325 66.1524C159.2 67.058 155.982 66.552 152.807 66.6752C152.068 66.7051 152.058 66.219 152.058 65.6863C152.065 63.9717 152.058 62.257 152.058 60.5424H152.062ZM154.045 60.6489C154.045 61.701 154.035 62.7498 154.052 63.8019C154.058 64.2214 153.959 64.7741 154.628 64.7774C157.369 64.7841 160.14 64.9905 162.739 63.8319C164.126 63.2126 164.838 62.0673 164.792 60.5357C164.745 59.0741 163.991 58.062 162.66 57.4594C161.226 56.8068 159.703 56.6204 158.164 56.5904C154.048 56.5072 154.048 56.5271 154.048 60.6489H154.045Z" fill="#043E6C"/>
<path d="M243.972 54.5795C245.787 54.5795 247.604 54.5262 249.419 54.5928C251.749 54.676 253.276 56.2741 253.249 58.4782C253.223 60.6489 251.62 62.1605 249.26 62.1771C246.343 62.2004 243.426 62.2371 240.513 62.1538C239.446 62.1239 239.168 62.4735 239.274 63.459C239.35 64.1681 239.251 64.8973 239.301 65.6131C239.354 66.3622 239.165 66.7151 238.321 66.6985C237.549 66.6851 237.275 66.4787 237.285 65.6663C237.324 62.2937 237.328 58.9177 237.285 55.5416C237.275 54.686 237.635 54.5462 238.364 54.5628C240.234 54.6028 242.105 54.5761 243.976 54.5761L243.972 54.5795ZM244.687 60.2294C246.171 60.2294 247.657 60.2428 249.14 60.2261C250.336 60.2128 251.243 59.6967 251.249 58.4149C251.253 57.1098 250.269 56.6137 249.124 56.5971C246.154 56.5538 243.184 56.6004 240.215 56.5671C239.489 56.5571 239.225 56.8035 239.281 57.5193C239.324 58.0687 239.344 58.6313 239.278 59.1774C239.165 60.0929 239.572 60.2927 240.4 60.2594C241.827 60.1995 243.257 60.2428 244.687 60.2428V60.2294Z" fill="#043E6C"/>
<path d="M131.32 60.5191C131.32 62.1805 131.287 63.8418 131.333 65.4999C131.356 66.3056 131.197 66.7118 130.27 66.6951C127.353 66.6452 124.433 66.7417 121.52 66.6552C118.944 66.5786 116.968 64.5477 116.875 61.9574C116.799 59.8566 116.881 57.7524 116.848 55.6482C116.835 54.8991 117.021 54.5695 117.852 54.5528C118.736 54.5328 118.818 54.949 118.808 55.6549C118.779 57.536 118.775 59.4204 118.805 61.3015C118.838 63.4756 119.99 64.7008 122.159 64.7741C124.248 64.844 126.344 64.7474 128.433 64.8107C129.297 64.8373 129.409 64.4678 129.4 63.7386C129.366 61.1384 129.386 58.5348 129.386 55.9345C129.386 55.232 129.194 54.5095 130.389 54.5495C131.456 54.5861 131.326 55.2087 131.323 55.8746C131.323 57.4228 131.323 58.9743 131.323 60.5224L131.32 60.5191Z" fill="#043E6C"/>
<path d="M134.349 60.5391C134.349 58.9343 134.382 57.3262 134.336 55.7248C134.313 54.9157 134.472 54.5362 135.402 54.5595C138.153 54.6194 140.908 54.5328 143.659 54.5961C146.516 54.6627 148.483 56.7069 148.529 59.5736C148.559 61.5645 148.496 63.5588 148.552 65.5498C148.576 66.4155 148.311 66.7018 147.44 66.7051C146.443 66.7051 146.599 66.0859 146.599 65.4899C146.599 63.6088 146.619 61.7243 146.592 59.8432C146.566 57.779 145.463 56.6237 143.467 56.5904C141.431 56.5571 139.391 56.627 137.359 56.5638C136.451 56.5338 136.259 56.8901 136.273 57.7124C136.312 60.3127 136.263 62.9163 136.302 65.5165C136.316 66.3356 136.14 66.7051 135.223 66.7085C134.26 66.7085 134.343 66.1524 134.346 65.5232C134.356 63.8618 134.349 62.2004 134.349 60.5424V60.5391Z" fill="#043E6C"/>
<path d="M92.2923 54.5795C92.6234 54.5795 92.9578 54.6061 93.2856 54.5728C94.1133 54.4929 94.1166 55.0223 94.1464 55.6249C94.1795 56.3207 93.9742 56.6204 93.2227 56.5971C92.1897 56.5638 91.0971 56.3707 90.1602 56.9866C89.1802 57.6325 88.6604 58.5614 88.6703 59.78C88.6902 61.7776 88.6439 63.7719 88.6902 65.7696C88.7068 66.5387 88.3922 66.7018 87.7135 66.6885C87.048 66.6752 86.7104 66.522 86.7236 65.7529C86.7666 63.5355 86.6441 61.3115 86.7699 59.1008C86.9256 56.354 89.1835 54.5861 92.2923 54.5761V54.5795Z" fill="#043E6C"/>
<path d="M352 7.76813C352.026 9.9056 350.414 11.5603 348.278 11.5803C346.176 11.6003 344.497 9.93224 344.494 7.8214C344.494 5.77382 346.054 4.19568 348.149 4.1291C350.321 4.05918 351.97 5.62067 352 7.77146V7.76813ZM349.954 10.0554C351.285 8.13103 351.218 6.73269 350.053 5.66395C349.003 4.69842 347.52 4.69509 346.451 5.65063C345.428 6.56622 345.216 8.29417 345.987 9.44281C346.855 10.728 348.014 10.9444 349.805 10.1054C349.248 9.92891 348.901 9.66921 348.768 9.06659C348.672 8.63377 348.172 8.33745 347.762 8.81356C347.527 9.08324 347.785 9.87897 347.077 9.61927C346.59 9.44281 346.858 8.83686 346.828 8.42735C346.792 7.93127 346.838 7.42853 346.815 6.93245C346.745 5.44088 347.865 5.98024 348.556 5.95361C349.344 5.92031 350.185 6.33316 349.798 7.20879C349.364 8.1843 349.97 8.82355 349.957 10.0588L349.954 10.0554Z" fill="#043E6C"/>
<path d="M258.159 59.0275C258.159 61.2383 258.146 63.449 258.166 65.6597C258.172 66.2823 258.129 66.7251 257.315 66.6951C256.619 66.6685 256.199 66.5986 256.206 65.713C256.242 61.1817 256.245 56.6503 256.206 52.119C256.199 51.2667 256.533 51.1535 257.258 51.1136C258.185 51.0636 258.176 51.563 258.169 52.2322C258.146 54.4962 258.159 56.7635 258.159 59.0309V59.0275Z" fill="#043E6C"/>
</svg>
