<svg width="285" height="50" viewBox="0 0 285 50" fill="none" xmlns="http://www.w3.org/2000/svg">
<path d="M17.7328 35.982C20.4152 36.0426 23.1054 35.1636 25.7878 33.3375C26.0568 33.1556 26.2874 33.2011 26.4719 33.4663L27.594 35.1182C27.7554 35.3606 27.7247 35.5728 27.4864 35.7547C26.0952 36.8306 24.7732 37.5429 23.5281 37.8839C5.56578 42.8016 -3.52682 26.7452 1.26928 11.8028C4.85098 0.618689 16.9719 -3.1245 26.91 2.77064C27.179 2.92977 27.2328 3.14193 27.0791 3.40714L26.0799 5.13476C25.9108 5.43786 25.6725 5.49848 25.3727 5.3242C16.234 -0.0708458 6.39588 4.28611 3.88254 14.0229C1.28465 24.0856 5.68876 35.7168 17.7328 35.982ZM179.102 0.747503H181.73C181.876 0.747503 181.992 0.861163 181.992 1.00513C181.992 1.03544 181.991 1.05817 181.976 1.08848L168.779 38.2324C168.741 38.3385 168.641 38.4067 168.526 38.4067L164.89 38.3461C164.782 38.3461 164.683 38.2779 164.644 38.1794L151.462 1.08848C151.416 0.95209 151.486 0.808122 151.624 0.762658C151.647 0.75508 151.678 0.747503 151.708 0.747503H154.606C154.714 0.747503 154.814 0.815699 154.852 0.921781L166.604 34.6863C166.65 34.8227 166.804 34.8909 166.935 34.8454C167.011 34.8227 167.065 34.762 167.096 34.6863L178.856 0.921781C178.894 0.815699 178.994 0.747503 179.102 0.747503Z" fill="#043E6C"/>
<path d="M186.457 7.16548C187.557 7.16548 188.448 6.28683 188.448 5.20296C188.448 4.11909 187.557 3.24044 186.457 3.24044C185.358 3.24044 184.466 4.11909 184.466 5.20296C184.466 6.28683 185.358 7.16548 186.457 7.16548Z" fill="#043E6C"/>
<path d="M217.155 7.1579C218.246 7.1579 219.131 6.28604 219.131 5.21054C219.131 4.13504 218.246 3.26317 217.155 3.26317C216.064 3.26317 215.18 4.13504 215.18 5.21054C215.18 6.28604 216.064 7.1579 217.155 7.1579Z" fill="#043E6C"/>
<path d="M285 7.98383C285 10.3328 283.063 12.2423 280.68 12.2423C278.298 12.2423 276.361 10.3328 276.361 7.98383C276.361 5.63487 278.298 3.72538 280.68 3.72538C283.063 3.72538 285 5.63487 285 7.98383ZM283.886 7.98383C283.886 6.2259 282.441 4.80136 280.657 4.80136C278.874 4.80136 277.429 6.2259 277.429 7.98383C277.429 9.74177 278.874 11.1663 280.657 11.1663C282.441 11.1663 283.886 9.74177 283.886 7.98383Z" fill="#043E6C"/>
<path d="M280.319 9.00677L280.012 9.97666C279.92 10.2646 279.727 10.3631 279.435 10.2722C278.828 10.0827 279.051 6.85481 279.074 6.21832C279.074 5.93796 279.212 5.7561 279.481 5.66518C280.657 5.24842 281.564 5.59698 282.218 6.71084C282.341 6.91543 282.348 7.12002 282.233 7.32461C281.818 8.11265 281.926 8.87038 282.548 9.60538C282.833 9.93878 282.756 10.1434 282.318 10.2116C281.526 10.3328 281.403 9.32502 281.034 8.87795C280.711 8.47636 280.473 8.52182 280.319 9.00677ZM280.396 6.52141C280.112 6.84723 280.112 7.16548 280.396 7.47615C280.68 7.78682 280.911 7.74893 281.072 7.36249C281.265 6.90028 281.188 6.58961 280.834 6.43048C280.68 6.36229 280.504 6.40017 280.396 6.52141Z" fill="#043E6C"/>
<path d="M50.5907 35.0045C46.74 39.8161 38.0317 40.3692 33.3432 35.9744C28.3473 31.2916 28.2858 20.7061 31.8598 15.3262C36.6713 8.08234 48.9766 9.18862 52.4354 17.6676C54.5644 22.8657 54.0725 30.6551 50.5907 35.0045ZM41.575 36.3684C46.6016 36.3533 50.6599 31.1477 50.6368 24.7524C50.6138 18.3572 46.5248 13.1819 41.4981 13.197C36.4714 13.2122 32.4132 18.4178 32.4362 24.813C32.4593 31.2083 36.5483 36.3836 41.575 36.3684ZM57.8771 30.8143C55.2792 21.3654 58.1307 10.0373 70.1363 10.6586C81.235 11.2345 82.9644 24.1235 79.9437 32.1251C76.2468 41.915 60.6825 41.0133 57.8771 30.8143ZM69.1141 36.3684C74.1408 36.3684 78.2221 31.178 78.2221 24.7751C78.2221 18.3723 74.1408 13.1819 69.1141 13.1819C64.0874 13.1819 60.0061 18.3723 60.0061 24.7751C60.0061 31.178 64.0874 36.3684 69.1141 36.3684ZM88.1986 12.8409C91.5497 10.7647 94.7701 10.0827 97.8676 10.795C113.063 14.273 110.05 40.6117 91.7265 38.6189C90.6427 38.4977 89.4591 37.846 88.2908 37.5429C88.0064 37.4747 87.8681 37.5808 87.8681 37.8687V49.5226C87.8681 49.8409 87.7067 50 87.3839 50H85.1779C84.9243 50 84.7936 49.8712 84.7936 49.6211V11.8331C84.7936 11.5149 84.9551 11.3557 85.2702 11.3557H87.3915C87.8758 11.3557 88.0295 11.5831 87.8681 12.0301L87.7067 12.4469C87.4838 13.0455 87.6452 13.1819 88.1986 12.8409ZM103.709 19.6529C101.396 12.6742 93.7172 11.6134 88.114 15.8339C87.9526 15.9552 87.8681 16.1219 87.8681 16.3264V33.8831C87.8681 34.118 87.9757 34.2847 88.1832 34.3907C99.3664 40.1343 106.999 29.5867 103.709 19.6529Z" fill="#043E6C"/>
<path d="M114.024 25.6844C114.016 35.785 123.662 38.1567 131.302 33.7694C131.517 33.6406 131.694 33.6861 131.825 33.8982L132.947 35.7092C133.077 35.9138 133.008 36.1866 132.793 36.3154C132.793 36.3154 132.793 36.3154 132.785 36.3154C120.933 42.9152 109.289 36.1108 111.049 22.3353C113.163 5.83945 134.907 6.58961 133.677 24.7676C133.662 25.0479 133.508 25.1919 133.223 25.1919L114.539 25.1692C114.193 25.1692 114.024 25.3359 114.024 25.6768V25.6844ZM114.539 22.6005L130.649 22.4641C130.749 22.4641 130.833 22.3807 130.833 22.2822V22.1761C130.787 17.2281 127.09 13.2501 122.563 13.2879H122.471C117.944 13.3258 114.308 17.3645 114.354 22.3125V22.4186C114.354 22.5171 114.439 22.6005 114.539 22.6005ZM141.332 14.0684C143.83 11.2042 147.043 10.0827 150.986 10.7117C151.309 10.7647 151.424 10.939 151.324 11.2497L150.702 13.197C150.617 13.4471 150.448 13.5456 150.187 13.485C148.88 13.1894 147.527 13.3031 146.128 13.8184C142.132 15.2959 140.356 18.1147 140.802 22.2898C141.086 24.9191 141.063 30.1626 140.748 38.0127C140.733 38.3006 140.579 38.4446 140.295 38.4446H138.212C137.958 38.4446 137.827 38.3158 137.827 38.0657V11.7346C137.827 11.4845 137.958 11.3557 138.212 11.3557H140.464C140.817 11.3557 140.979 11.53 140.94 11.8786L140.74 13.8184C140.664 14.523 140.863 14.6064 141.332 14.0684ZM207.532 30.7385C207.309 26.9271 201.291 25.4116 198.509 24.4569C194.205 22.9793 191.668 18.88 193.897 14.5988C196.672 9.25682 205.18 10.1282 209.592 12.6287C209.884 12.7878 209.946 13.0152 209.777 13.3031L208.793 14.9853C208.647 15.2353 208.447 15.2732 208.209 15.1141C205.096 13.0455 200.008 12.2574 197.095 15.0231C195.896 16.1597 195.68 17.5691 196.441 19.2589C198.624 24.078 208.939 22.1913 210.53 29.3291C211.737 34.7393 207.786 38.4067 202.36 38.7629C198.609 39.0053 195.296 38.3385 192.421 36.77C192.076 36.5806 191.999 36.3154 192.199 35.9744L193.182 34.2998C193.344 34.0195 193.567 33.974 193.843 34.1483C197.856 36.7397 207.963 38.043 207.532 30.7385ZM223.535 25.1843C223.435 18.0238 226.202 11.3785 234.433 10.7495C252.48 9.37048 252.25 39.513 235.402 38.8992C227.101 38.6037 223.642 32.7313 223.535 25.1843ZM235.656 36.3533C240.682 36.3533 244.764 31.1704 244.764 24.7751C244.764 18.3799 240.682 13.197 235.656 13.197C230.629 13.197 226.548 18.3799 226.548 24.7751C226.548 31.1704 230.629 36.3533 235.656 36.3533ZM256.047 12.8939C260.628 10.2949 268.344 9.05223 271.496 14.1139C272.31 15.4172 272.756 17.5691 272.825 20.5773C272.964 26.4194 272.979 32.2539 272.864 38.0885C272.864 38.3234 272.741 38.4446 272.503 38.4446H270.373C270.02 38.4446 269.843 38.2703 269.843 37.9218C269.843 31.5114 269.812 25.1161 269.759 18.7436C269.697 10.8481 259.651 13.341 255.732 16.084C255.524 16.2279 255.424 16.4174 255.424 16.6674V37.9748C255.424 38.2931 255.263 38.4522 254.94 38.4522L253.003 38.4295C252.657 38.4295 252.48 38.2552 252.48 37.9066L252.542 11.8104C252.542 11.5073 252.696 11.3557 252.995 11.3557H254.94C255.263 11.3557 255.424 11.5149 255.424 11.8331V12.5378C255.424 13.0152 255.632 13.1288 256.047 12.8939Z" fill="#043E6C"/>
<path d="M187.779 11.3633H185.304C185.19 11.3633 185.097 11.4549 185.097 11.5679V38.2249C185.097 38.3379 185.19 38.4295 185.304 38.4295H187.779C187.894 38.4295 187.987 38.3379 187.987 38.2249V11.5679C187.987 11.4549 187.894 11.3633 187.779 11.3633Z" fill="#043E6C"/>
<path d="M218.393 11.3406H216.179C215.992 11.3406 215.841 11.4898 215.841 11.674V38.1036C215.841 38.2878 215.992 38.437 216.179 38.437H218.393C218.579 38.437 218.731 38.2878 218.731 38.1036V11.674C218.731 11.4898 218.579 11.3406 218.393 11.3406Z" fill="#043E6C"/>
</svg>
