<svg width="236" height="33" viewBox="0 0 236 33" fill="none" xmlns="http://www.w3.org/2000/svg">
<path d="M83.2 31.7C83.2 31.9 82.7999 32.1 82.2 32.1C81.6 32.1 81.2 31.9 81.2 31.7V26.4C81.2 26.2 81.5 26 82.3 26H86.4C89.8 26 91.8 26.8 91.8 27.9C91.8 28.9 89.5 29.8 86.4 29.8H83.2V31.7ZM83.2 29.1H86.3C88.4 29.1 89.7 28.6 89.7 27.9C89.7 27.3 88.7999 26.7 86.2 26.7H83.2V29.1Z" fill="#043E6C"/>
<path d="M105.1 31.7C105.1 31.9 104.7 32.1 104.1 32.1C103.5 32.1 103.1 31.9 103.1 31.7V26.4C103.1 26.2 103.4 26 104.2 26H108C110.6 26 113.1 26.6 113.1 27.6C113.1 28.8 111 29.3 108.5 29.3H107.6L113 31.4C113.3 31.5 113.4 31.6 113.4 31.7C113.4 31.9 113 32 112.5 32C112.1 32 111.8 31.9 111.6 31.8L105.2 29.3V31.7H105.1ZM107.9 28.8C110.1 28.8 111 28.5 111 27.7C111 27.1 109.8 26.7 107.8 26.7H105V28.8H107.9Z" fill="#043E6C"/>
<path d="M131.6 26C136.4 26 139 27.5 139 29.1C139 30.7 136.4 32.2 131.6 32.2C126.8 32.2 124.2 30.7 124.2 29.1C124.3 27.5 126.9 26 131.6 26ZM131.6 31.4C135.4 31.4 136.7 30.1 136.7 29C136.7 27.9 135.3 26.6 131.6 26.6C127.8 26.6 126.5 27.9 126.5 29C126.5 30.2 127.9 31.4 131.6 31.4Z" fill="#043E6C"/>
<path d="M154.7 26.4C154.7 26.2 155.1 26 155.7 26C156.3 26 156.7 26.2 156.7 26.4V30.5C156.7 31.5 155.6 32.1 152.6 32.1C151.5 32.1 149.2 31.9 149.2 31.4C149.2 31.2 149.5 31.1 150 31.1C150.9 31.1 151 31.4 152.8 31.4C154.2 31.4 154.6 31 154.6 30.5V26.4H154.7Z" fill="#043E6C"/>
<path d="M171.3 31.2999H176.3C176.9 31.2999 177.3 31.3999 177.3 31.5999C177.3 31.7999 176.9 31.8999 176.3 31.8999H170.3C169.5 31.8999 169.2 31.6999 169.2 31.4999V26.2999C169.2 26.0999 169.5 25.8999 170.3 25.8999H176.3C176.9 25.8999 177.3 25.9999 177.3 26.1999C177.3 26.3999 176.9 26.4999 176.3 26.4999H171.3V28.4999H175.9C176.5 28.4999 176.9 28.5999 176.9 28.7999C176.9 28.9999 176.5 29.0999 175.9 29.0999H171.3V31.2999Z" fill="#043E6C"/>
<path d="M196 31.3998C198.5 31.3998 199.6 30.8998 200.5 30.8998C201 30.8998 201.3 30.9998 201.3 31.1998C201.3 31.5998 198.9 31.9998 196 31.9998C191.1 31.9998 188.6 30.4998 188.6 28.8998C188.6 27.2998 191.1 25.7998 196.1 25.7998C199.1 25.7998 201 26.3998 201 26.6998C201 26.8998 200.7 27.0998 200.1 27.0998C199.2 27.0998 198.7 26.4998 196.1 26.4998C192.4 26.4998 190.8 27.7998 190.8 28.8998C190.9 30.1998 192.5 31.3998 196 31.3998Z" fill="#043E6C"/>
<path d="M212.7 26.7001C212.1 26.7001 211.7 26.6001 211.7 26.4001C211.7 26.2001 212.1 26.1001 212.7 26.1001H221.1C221.7 26.1001 222.1 26.2001 222.1 26.4001C222.1 26.6001 221.7 26.7001 221.1 26.7001H218V31.7001C218 31.9001 217.6 32.1001 217 32.1001C216.4 32.1001 216 31.9001 216 31.7001V26.7001H212.7Z" fill="#043E6C"/>
<path d="M77.2999 18.3001C77.2999 19.7001 75.0999 20.5001 72.0999 20.5001C69.0999 20.5001 66.8999 19.7001 66.8999 18.3001V2.3001C66.8999 0.900098 68.7999 0.100098 72.1999 0.100098H84.2999C94.8999 0.100098 101.4 2.1001 101.4 6.5001C101.4 9.6001 95.6999 11.4001 88.6999 11.9001L100.4 17.1001C101.4 17.5001 101.8 18.0001 101.8 18.4001C101.8 19.5001 99.6999 20.6001 96.5999 20.6001C95.3999 20.6001 93.6999 20.4001 92.5999 19.9001L81.9999 14.5001C81.5999 14.3001 81.3999 13.9001 81.3999 13.4001V10.3001C81.3999 9.6001 81.8999 9.1001 82.5999 9.1001H84.3999C88.1999 9.1001 90.7999 8.2001 90.7999 6.6001C90.7999 5.0001 88.1999 4.1001 84.3999 4.1001H78.4999C77.7999 4.1001 77.2999 4.6001 77.2999 5.3001V18.3001Z" fill="#043E6C"/>
<path d="M106.9 2.2C106.9 0.8 109.1 0 112.1 0C115.1 0 117.3 0.8 117.3 2.2V12.1C117.3 14.7 121.4 16.8 127.9 16.8C134.2 16.8 138.4 14.6 138.4 12.1V2.2C138.4 0.8 140.6 0 143.6 0C146.6 0 148.8 0.8 148.8 2.2V12.4C148.8 17.2 139.3 20.8 128 20.8C116.5 20.8 107.1 17.2 107.1 12.4V2.2H106.9Z" fill="#043E6C"/>
<path d="M155.5 2.4002C155.5 1.1002 157.7 0.200195 160.8 0.200195H172.2C187.6 0.200195 196.4 4.3002 196.4 10.6002C196.4 16.6002 187.1 20.4002 172.9 20.4002H160.9C158.6 20.4002 155.5 19.9002 155.5 18.3002V2.4002ZM165.8 15.3002C165.8 16.0002 166.3 16.5002 167 16.5002H172.8C181.7 16.5002 185.7 13.8002 185.7 10.4002C185.7 6.8002 181.6 4.10019 172.1 4.10019H167C166.3 4.10019 165.8 4.6002 165.8 5.3002V15.3002Z" fill="#043E6C"/>
<path d="M211.5 11.6C211.5 11.2 211.3 10.8 210.9 10.6L198.5 3.4C197.9 3 197.5 2.6 197.5 2.1C197.5 1 199.6 0 202.4 0C204.2 0 205.8 0.3 206.7 0.9L216 6.5C216.4 6.7 216.9 6.7 217.2 6.5L226.5 0.9C227.4 0.4 229 0 230.8 0C233.7 0 235.7 0.9 235.7 2.1C235.7 2.6 235.4 3 234.7 3.4L222.3 10.6C221.9 10.8 221.7 11.2 221.7 11.6V18.5C221.7 19.6 220.2 20.6 216.5 20.6C212.9 20.6 211.3 19.6 211.3 18.5V11.6H211.5Z" fill="#043E6C"/>
<path fill-rule="evenodd" clip-rule="evenodd" d="M38.4 0.100098H9.8C4.4 0.100098 0 4.5001 0 9.9001V22.2001C0 27.6001 4.4 32.0001 9.8 32.0001H38.4C43.8 32.0001 48.2 27.6001 48.2 22.2001V9.9001C48.3 4.5001 43.8 0.100098 38.4 0.100098ZM30.5 29.0001C29.1 29.7001 26.9 29.6001 25.6 28.8001L5 16.1001C4.4 15.7001 4.1 15.2001 4.2 14.7001C4.4 13.7001 6 12.9001 8 13.0001C8.9 13.0001 9.8 13.3001 10.4 13.6001L31 26.3001C32.2 27.2001 32 28.4001 30.5 29.0001ZM39.5 27.5001C38.6 27.5001 37.7 27.2001 37.1 26.9001L6.1 7.6001C5.5 7.3001 5.2 6.8001 5.2 6.3001C5.4 5.3001 7 4.5001 9 4.6001C10 4.7001 10.8 4.9001 11.4 5.3001L42.4 24.4001C43 24.8001 43.3 25.3001 43.3 25.8001C43.1 26.8001 41.4 27.5001 39.5 27.5001ZM40.3 19.1001C39.4 19.1001 38.5 18.8001 37.9 18.5001L17.4 5.7001C16.2 4.9001 16.3 3.8001 17.8 3.1001C19.2 2.4001 21.4 2.5001 22.7 3.3001L43.3 16.0001C43.9 16.4001 44.2 16.9001 44.1 17.4001C44 18.4001 42.3 19.2001 40.3 19.1001Z" fill="#043E6C"/>
</svg>
