<svg width="247" height="34" viewBox="0 0 247 34" fill="none" xmlns="http://www.w3.org/2000/svg">
<path d="M224.424 22.4851H234.402L231.629 11.6826H230.932L224.424 22.4851ZM46.0277 22.4851H56.0055L53.2325 11.6826H52.5299L46.0277 22.4851ZM237.624 0C244.216 24.0934 246.868 33.5023 247 34H236.753L235.358 29.3532H220.426L217.22 34H205.324C193.688 34 189.003 26.3251 193.081 14.9883H197.507C199.852 14.9883 200.977 14.0086 201.68 11.8659C202.293 9.99569 202.013 8.65455 198.732 8.65455H191.691L182.321 34H135.089C123.468 34 118.778 26.3251 122.85 14.9883H127.277C129.622 14.9883 130.752 14.0086 131.449 11.8659C132.052 9.99569 131.793 8.65455 128.491 8.65455H121.466L112.091 34H97.2321C85.6116 34 80.9264 26.3251 84.9988 14.9883H89.4305C91.7705 14.9883 92.9061 14.0086 93.6033 11.8659C94.2002 9.99569 93.9467 8.65455 90.6559 8.65455H83.6202L74.2445 34H58.3561L56.9774 29.3532H42.0345L38.8177 34H17.9852C5.22371 34 -2.76279 29.3532 0.887126 14.7211C3.13729 5.61603 10.4318 0 23.0296 0H38.3053L35.0885 8.7436H23.1933C19.2899 8.7436 13.469 9.37226 11.7312 16.1513C10.2628 22.1288 11.6414 25.0783 19.8973 25.0783H33.5251L49.7569 0H59.4019L66.1683 25.3455L76.2412 0H89.0026C94.3851 0 98.1248 0 101.241 1.8755C104.801 4.102 105.847 8.12018 104.638 11.8712C104.194 13.3014 102.815 15.9784 101.674 17.2253C98.2991 20.8767 94.3904 21.3273 93.0857 21.3273C92.8163 24.8949 94.7337 25.3455 98.4681 25.3455H104.543L114.098 0H126.849C132.236 0 135.966 0 139.093 1.8755C142.653 4.102 143.693 8.12018 142.473 11.8712C142.051 13.3014 140.651 15.9784 139.526 17.2253C136.14 20.8767 132.242 21.3273 130.932 21.3273C130.668 24.8949 132.58 25.3455 136.309 25.3455H142.827L152.372 0H178.153L174.857 8.47643H159.925L158.097 13.2018H170.769L168.091 20.7824H155.573L153.835 25.3455H174.762L184.312 0H197.074C202.456 0 206.196 0 209.318 1.8755C212.867 4.102 213.913 8.12018 212.698 11.8712C212.255 13.3014 210.876 15.9784 209.751 17.2253C206.36 20.8767 202.456 21.3273 201.152 21.3273C200.898 24.8949 202.805 25.3455 206.539 25.3455H211.922L228.592 0H237.624Z" fill="#043E6C"/>
</svg>
