<svg width="85" height="86" viewBox="0 0 85 86" fill="none" xmlns="http://www.w3.org/2000/svg">
<path d="M0.077474 0C28.3887 0 56.6888 0 85 0C85 28.7227 85 57.2773 85 86C73.6113 80.625 59.2012 76.7841 42.5 76.7841C25.7988 76.7841 11.3887 80.625 0 86C0 57.2773 0 28.8682 0 0.156771C0 0.0783854 0 0 0.077474 0ZM19.9551 24.1091C19.8001 24.8034 19.9551 25.7216 19.8776 26.5615C22.1576 26.1807 21.7702 28.4091 21.7702 30.4807C21.7702 32.6307 21.7702 34.8591 21.7702 36.9307C21.7702 39.0023 22.069 41.074 19.8776 40.6932C19.8776 41.4659 19.8776 42.3057 19.8776 43.0784C25.1126 43.0784 30.4251 43.0784 35.6602 43.0784C35.6602 40.9284 35.6602 38.8568 35.6602 36.7068C34.8965 36.7068 34.0664 36.7068 33.3027 36.7068C33.0703 39.551 31.3327 41.1635 27.9902 40.7044C28.0677 38.7896 27.9128 36.7068 28.0677 34.9487C29.584 34.7135 29.7389 35.9453 29.8939 37.0987C30.5026 37.2555 31.4102 37.0987 32.0964 37.1771C32.0964 34.8703 32.0964 32.5747 32.0964 30.268C31.3327 30.268 30.5026 30.268 29.7389 30.268C29.8939 31.7237 29.5065 32.6531 27.9902 32.4964C27.9902 30.5815 27.9902 28.5771 27.9902 26.6622C31.554 26.2031 32.9264 27.9724 33.3802 30.6599C33.9889 30.8167 34.8965 30.6599 35.5827 30.7383C35.5827 28.5883 35.5827 26.4383 35.5827 24.2883C30.5137 24.1091 25.2012 24.1091 19.9551 24.1091ZM3.64128 24.3443C3.64128 26.4159 3.64128 28.4875 3.64128 30.5591C4.32747 30.5591 5.23503 30.6375 5.84375 30.4807C6.375 27.6365 8.1237 26.1807 11.4551 26.4831C9.40755 32.7875 2.95508 34.9375 2.95508 43C8.03516 43 13.2038 43 18.2839 43C18.2839 40.85 18.2839 38.7784 18.2839 36.6284C17.5202 36.6284 16.6126 36.55 16.0039 36.7068C15.6276 39.551 13.8014 41.1635 10.3151 40.626C12.4401 34.4784 18.3613 32.1828 18.6602 24.1987C13.6465 24.1987 8.64388 24.1987 3.70768 24.1987C3.5638 24.1875 3.64128 24.2659 3.64128 24.3443ZM37.3424 26.5727C39.6224 26.1919 39.235 28.2635 39.235 30.3352C39.235 32.5635 39.235 34.7919 39.235 36.9419C39.235 39.0919 39.5339 41.0852 37.3424 40.7044C37.3424 41.4771 37.3424 42.3169 37.3424 43.0896C40.7624 43.0896 44.0938 43.0896 47.5137 43.0896C47.5137 42.3169 47.5137 41.4771 47.5137 40.7044C45.2337 41.0852 45.6211 39.0135 45.6211 36.9419C45.6211 34.7919 45.6211 32.4852 45.6211 30.3352C45.6211 28.1852 45.3223 26.1135 47.5137 26.5727C47.5137 25.8 47.5137 24.9602 47.5137 24.1875C44.1712 24.1875 40.7624 24.1875 37.4199 24.1875C37.265 24.8034 37.4199 25.8 37.3424 26.5727ZM49.0299 26.7182C49.2624 28.5659 50.1699 30.324 51.1549 31.7125C53.0475 34.5568 56.1686 37.0875 57.1536 40.6932C53.5124 41.1523 51.8411 39.6182 51.4648 36.6956C50.7786 36.5388 49.8711 36.6956 49.1074 36.6172C49.1074 38.7672 49.1074 40.8388 49.1074 42.9888C53.9661 42.9888 58.7474 42.9888 63.6061 42.9888C64.3698 41.9922 64.2923 40.3013 63.905 38.9911C63.2962 37.1435 62.1563 35.3854 60.9499 33.8513C59.0573 31.4661 56.7773 29.4729 56.0911 26.4047C59.5111 26.1695 61.2487 27.6365 61.7025 30.4023C62.3112 30.5591 63.2188 30.4023 63.905 30.4807C63.905 28.3307 63.905 26.2591 63.905 24.1091C59.1237 24.1091 54.3424 24.1091 49.5612 24.1091C49.0299 24.6466 48.9525 25.7216 49.0299 26.7182ZM65.4212 26.7182C65.5762 28.174 66.2513 29.4841 67.015 30.7159C69.0625 34.0977 72.3275 36.8635 73.5449 40.6932C69.9036 41.074 68.1549 39.6182 67.8561 36.6956C67.1699 36.5388 66.2624 36.6956 65.4987 36.6172C65.4987 38.7672 65.4987 40.8388 65.4987 42.9888C70.2799 42.9888 75.1387 42.9888 79.9199 42.9888C80.4512 42.3729 80.6061 41.5331 80.5286 40.3797C80.2298 37.5354 78.3262 35.0831 76.6549 33.157C74.9062 31.0854 73.0911 29.1594 72.405 26.4719C75.8249 26.2367 77.5625 27.782 78.0938 30.4695C78.7025 30.6263 79.5326 30.4695 80.2962 30.5479C80.2962 28.3979 80.2962 26.3263 80.2962 24.1763C75.515 24.1763 70.8112 24.1763 66.0299 24.1763C65.4987 24.6466 65.3438 25.7216 65.4212 26.7182Z" fill="#043E6C"/>
</svg>
